# MagicaVoxel @ Ephtracy

# group
o 

# material
mtllib pavement.mtl
usemtl palette

# normals
vn -1 0 0
vn 1 0 0
vn 0 0 1
vn 0 0 -1
vn 0 -1 0
vn 0 1 0

# texcoords
vt 0.537109 0.5
vt 0.958984 0.5
vt 0.978516 0.5
vt 0.986328 0.5

# verts
v -0.5 0 0.5
v -0.5 0 -0.5
v -0.5 0.4 0.5
v -0.5 0.4 -0.5
v -0.5 0.8 0.5
v -0.5 0.8 -0.5
v -0.5 0.9 0.3
v -0.5 0.9 0.2
v -0.5 0.9 -0.1
v -0.5 0.9 -0.2
v -0.5 1 0.5
v -0.5 1 0.3
v -0.5 1 0.2
v -0.5 1 -0.1
v -0.5 1 -0.2
v -0.5 1 -0.5
v 0.4 0.1 0.4
v 0.4 0.1 -0.4
v 0.4 0.4 0.4
v 0.4 0.4 -0.4
v 0.4 0.8 0.4
v 0.4 0.8 -0.4
v 0.4 0.9 0.4
v 0.4 0.9 0.3
v 0.4 0.9 0.2
v 0.4 0.9 -0.1
v 0.4 0.9 -0.2
v 0.4 0.9 -0.4
v -0.4 0.1 0.4
v -0.4 0.1 -0.4
v -0.4 0.4 0.4
v -0.4 0.4 -0.4
v -0.4 0.8 0.4
v -0.4 0.8 -0.4
v -0.4 0.9 0.4
v -0.4 0.9 -0.4
v 0.5 0 0.5
v 0.5 0 -0.5
v 0.5 0.4 0.5
v 0.5 0.4 -0.5
v 0.5 0.8 0.5
v 0.5 0.8 -0.5
v 0.5 0.9 0.3
v 0.5 0.9 0.2
v 0.5 0.9 -0.1
v 0.5 0.9 -0.2
v 0.5 1 0.5
v 0.5 1 0.3
v 0.5 1 0.2
v 0.5 1 -0.1
v 0.5 1 -0.2
v 0.5 1 -0.5
v -0.5 0 0.5
v -0.5 0.4 0.5
v -0.5 0.8 0.5
v -0.5 1 0.5
v -0.4 0.9 0.5
v -0.4 1 0.5
v -0.3 0.9 0.5
v -0.3 1 0.5
v -0.1 0.9 0.5
v -0.1 1 0.5
v 0 0.9 0.5
v 0 1 0.5
v 0.2 0.9 0.5
v 0.2 1 0.5
v 0.3 0.9 0.5
v 0.3 1 0.5
v 0.5 0 0.5
v 0.5 0.4 0.5
v 0.5 0.8 0.5
v 0.5 1 0.5
v -0.4 0.1 -0.4
v -0.4 0.4 -0.4
v -0.4 0.8 -0.4
v -0.4 0.9 -0.4
v -0.3 0.9 -0.4
v -0.1 0.9 -0.4
v 0 0.9 -0.4
v 0.2 0.9 -0.4
v 0.3 0.9 -0.4
v 0.4 0.1 -0.4
v 0.4 0.4 -0.4
v 0.4 0.8 -0.4
v 0.4 0.9 -0.4
v -0.4 0.1 0.4
v -0.4 0.4 0.4
v -0.4 0.8 0.4
v -0.4 0.9 0.4
v -0.3 0.9 0.4
v -0.1 0.9 0.4
v 0 0.9 0.4
v 0.2 0.9 0.4
v 0.3 0.9 0.4
v 0.4 0.1 0.4
v 0.4 0.4 0.4
v 0.4 0.8 0.4
v 0.4 0.9 0.4
v -0.5 0 -0.5
v -0.5 0.4 -0.5
v -0.5 0.8 -0.5
v -0.5 1 -0.5
v -0.4 0.9 -0.5
v -0.4 1 -0.5
v -0.3 0.9 -0.5
v -0.3 1 -0.5
v -0.1 0.9 -0.5
v -0.1 1 -0.5
v 0 0.9 -0.5
v 0 1 -0.5
v 0.2 0.9 -0.5
v 0.2 1 -0.5
v 0.3 0.9 -0.5
v 0.3 1 -0.5
v 0.5 0 -0.5
v 0.5 0.4 -0.5
v 0.5 0.8 -0.5
v 0.5 1 -0.5
v -0.5 0 0.5
v 0.5 0 0.5
v -0.5 0 -0.5
v 0.5 0 -0.5
v -0.4 0.9 0.4
v -0.3 0.9 0.4
v -0.1 0.9 0.4
v 0 0.9 0.4
v 0.2 0.9 0.4
v 0.3 0.9 0.4
v 0.4 0.9 0.4
v 0 0.9 0.3
v 0.2 0.9 0.3
v 0.3 0.9 0.3
v 0.4 0.9 0.3
v -0.3 0.9 0.2
v -0.1 0.9 0.2
v 0 0.9 0.2
v 0.2 0.9 0.2
v 0.3 0.9 0.2
v 0.4 0.9 0.2
v -0.3 0.9 0.1
v -0.1 0.9 0.1
v 0 0.9 -0.1
v 0.2 0.9 -0.1
v 0.3 0.9 -0.1
v 0.4 0.9 -0.1
v -0.3 0.9 -0.2
v -0.1 0.9 -0.2
v 0 0.9 -0.2
v 0.2 0.9 -0.2
v 0.3 0.9 -0.2
v 0.4 0.9 -0.2
v -0.3 0.9 -0.3
v -0.1 0.9 -0.3
v -0.4 0.9 -0.4
v -0.3 0.9 -0.4
v -0.1 0.9 -0.4
v 0 0.9 -0.4
v 0.2 0.9 -0.4
v 0.3 0.9 -0.4
v 0.4 0.9 -0.4
v -0.4 0.1 0.4
v 0.4 0.1 0.4
v -0.4 0.1 -0.4
v 0.4 0.1 -0.4
v -0.5 1 0.5
v -0.4 1 0.5
v -0.3 1 0.5
v -0.1 1 0.5
v 0 1 0.5
v 0.2 1 0.5
v 0.3 1 0.5
v 0.5 1 0.5
v -0.5 1 0.3
v -0.4 1 0.3
v 0 1 0.3
v 0.2 1 0.3
v 0.3 1 0.3
v 0.5 1 0.3
v -0.5 1 0.2
v -0.4 1 0.2
v -0.3 1 0.2
v -0.1 1 0.2
v 0 1 0.2
v 0.2 1 0.2
v 0.3 1 0.2
v 0.5 1 0.2
v -0.3 1 0.1
v -0.1 1 0.1
v -0.5 1 -0.1
v -0.4 1 -0.1
v 0 1 -0.1
v 0.2 1 -0.1
v 0.3 1 -0.1
v 0.5 1 -0.1
v -0.5 1 -0.2
v -0.4 1 -0.2
v -0.3 1 -0.2
v -0.1 1 -0.2
v 0 1 -0.2
v 0.2 1 -0.2
v 0.3 1 -0.2
v 0.5 1 -0.2
v -0.3 1 -0.3
v -0.1 1 -0.3
v -0.5 1 -0.5
v -0.4 1 -0.5
v -0.3 1 -0.5
v -0.1 1 -0.5
v 0 1 -0.5
v 0.2 1 -0.5
v 0.3 1 -0.5
v 0.5 1 -0.5

# faces
f 3/1/1 2/1/1 1/1/1
f 4/1/1 2/1/1 3/1/1
f 5/4/1 4/4/1 3/4/1
f 6/4/1 4/4/1 5/4/1
f 7/3/1 6/3/1 5/3/1
f 8/3/1 6/3/1 7/3/1
f 9/3/1 6/3/1 8/3/1
f 10/3/1 6/3/1 9/3/1
f 11/3/1 7/3/1 5/3/1
f 12/2/1 8/2/1 7/2/1
f 12/3/1 7/3/1 11/3/1
f 13/3/1 9/3/1 8/3/1
f 13/2/1 8/2/1 12/2/1
f 14/2/1 10/2/1 9/2/1
f 14/3/1 9/3/1 13/3/1
f 15/3/1 6/3/1 10/3/1
f 15/2/1 10/2/1 14/2/1
f 16/3/1 6/3/1 15/3/1
f 19/1/1 18/1/1 17/1/1
f 20/1/1 18/1/1 19/1/1
f 21/4/1 20/4/1 19/4/1
f 22/4/1 20/4/1 21/4/1
f 23/3/1 22/3/1 21/3/1
f 24/3/1 22/3/1 23/3/1
f 25/3/1 22/3/1 24/3/1
f 26/3/1 22/3/1 25/3/1
f 27/3/1 22/3/1 26/3/1
f 28/3/1 22/3/1 27/3/1
f 29/1/2 30/1/2 31/1/2
f 31/1/2 30/1/2 32/1/2
f 31/4/2 32/4/2 33/4/2
f 33/4/2 32/4/2 34/4/2
f 33/3/2 34/3/2 35/3/2
f 35/3/2 34/3/2 36/3/2
f 37/1/2 38/1/2 39/1/2
f 39/1/2 38/1/2 40/1/2
f 39/4/2 40/4/2 41/4/2
f 41/4/2 40/4/2 42/4/2
f 41/3/2 42/3/2 43/3/2
f 43/3/2 42/3/2 44/3/2
f 44/3/2 42/3/2 45/3/2
f 45/3/2 42/3/2 46/3/2
f 41/3/2 43/3/2 47/3/2
f 43/2/2 44/2/2 48/2/2
f 47/3/2 43/3/2 48/3/2
f 44/3/2 45/3/2 49/3/2
f 48/2/2 44/2/2 49/2/2
f 45/2/2 46/2/2 50/2/2
f 49/3/2 45/3/2 50/3/2
f 46/3/2 42/3/2 51/3/2
f 50/2/2 46/2/2 51/2/2
f 51/3/2 42/3/2 52/3/2
f 57/3/3 56/3/3 55/3/3
f 58/3/3 56/3/3 57/3/3
f 59/3/3 57/3/3 55/3/3
f 59/2/3 58/2/3 57/2/3
f 60/2/3 58/2/3 59/2/3
f 61/3/3 59/3/3 55/3/3
f 61/3/3 60/3/3 59/3/3
f 62/3/3 60/3/3 61/3/3
f 63/3/3 61/3/3 55/3/3
f 63/2/3 62/2/3 61/2/3
f 64/2/3 62/2/3 63/2/3
f 65/3/3 63/3/3 55/3/3
f 65/3/3 64/3/3 63/3/3
f 66/3/3 64/3/3 65/3/3
f 67/3/3 65/3/3 55/3/3
f 67/2/3 66/2/3 65/2/3
f 68/2/3 66/2/3 67/2/3
f 69/1/3 54/1/3 53/1/3
f 70/4/3 55/4/3 54/4/3
f 70/1/3 54/1/3 69/1/3
f 71/3/3 67/3/3 55/3/3
f 71/4/3 55/4/3 70/4/3
f 71/3/3 68/3/3 67/3/3
f 72/3/3 68/3/3 71/3/3
f 77/3/3 76/3/3 75/3/3
f 78/3/3 77/3/3 75/3/3
f 79/3/3 78/3/3 75/3/3
f 80/3/3 79/3/3 75/3/3
f 81/3/3 80/3/3 75/3/3
f 82/1/3 74/1/3 73/1/3
f 83/4/3 75/4/3 74/4/3
f 83/1/3 74/1/3 82/1/3
f 84/3/3 81/3/3 75/3/3
f 84/4/3 75/4/3 83/4/3
f 85/3/3 81/3/3 84/3/3
f 88/3/4 89/3/4 90/3/4
f 88/3/4 90/3/4 91/3/4
f 88/3/4 91/3/4 92/3/4
f 88/3/4 92/3/4 93/3/4
f 88/3/4 93/3/4 94/3/4
f 86/1/4 87/1/4 95/1/4
f 87/4/4 88/4/4 96/4/4
f 95/1/4 87/1/4 96/1/4
f 88/3/4 94/3/4 97/3/4
f 96/4/4 88/4/4 97/4/4
f 97/3/4 94/3/4 98/3/4
f 101/3/4 102/3/4 103/3/4
f 103/3/4 102/3/4 104/3/4
f 101/3/4 103/3/4 105/3/4
f 103/2/4 104/2/4 105/2/4
f 105/2/4 104/2/4 106/2/4
f 101/3/4 105/3/4 107/3/4
f 105/3/4 106/3/4 107/3/4
f 107/3/4 106/3/4 108/3/4
f 101/3/4 107/3/4 109/3/4
f 107/2/4 108/2/4 109/2/4
f 109/2/4 108/2/4 110/2/4
f 101/3/4 109/3/4 111/3/4
f 109/3/4 110/3/4 111/3/4
f 111/3/4 110/3/4 112/3/4
f 101/3/4 111/3/4 113/3/4
f 111/2/4 112/2/4 113/2/4
f 113/2/4 112/2/4 114/2/4
f 99/1/4 100/1/4 115/1/4
f 100/4/4 101/4/4 116/4/4
f 115/1/4 100/1/4 116/1/4
f 101/3/4 113/3/4 117/3/4
f 116/4/4 101/4/4 117/4/4
f 113/3/4 114/3/4 117/3/4
f 117/3/4 114/3/4 118/3/4
f 121/1/5 120/1/5 119/1/5
f 122/1/5 120/1/5 121/1/5
f 130/2/5 126/2/5 125/2/5
f 130/3/5 127/3/5 126/3/5
f 131/2/5 128/2/5 127/2/5
f 131/3/5 127/3/5 130/3/5
f 132/3/5 129/3/5 128/3/5
f 132/2/5 128/2/5 131/2/5
f 133/3/5 129/3/5 132/3/5
f 134/2/5 124/2/5 123/2/5
f 134/3/5 125/3/5 124/3/5
f 135/2/5 133/2/5 132/2/5
f 135/3/5 125/3/5 134/3/5
f 135/2/5 131/2/5 130/2/5
f 135/2/5 132/2/5 131/2/5
f 135/2/5 130/2/5 125/2/5
f 136/2/5 133/2/5 135/2/5
f 137/2/5 133/2/5 136/2/5
f 138/2/5 133/2/5 137/2/5
f 139/2/5 133/2/5 138/2/5
f 140/2/5 134/2/5 123/2/5
f 140/2/5 135/2/5 134/2/5
f 140/2/5 136/2/5 135/2/5
f 141/2/5 136/2/5 140/2/5
f 142/3/5 137/3/5 136/3/5
f 142/2/5 136/2/5 141/2/5
f 143/2/5 138/2/5 137/2/5
f 143/3/5 137/3/5 142/3/5
f 144/3/5 139/3/5 138/3/5
f 144/2/5 138/2/5 143/2/5
f 145/3/5 139/3/5 144/3/5
f 146/3/5 141/3/5 140/3/5
f 146/2/5 140/2/5 123/2/5
f 147/2/5 143/2/5 142/2/5
f 147/3/5 141/3/5 146/3/5
f 147/2/5 142/2/5 141/2/5
f 147/2/5 144/2/5 143/2/5
f 147/2/5 145/2/5 144/2/5
f 148/2/5 145/2/5 147/2/5
f 149/2/5 145/2/5 148/2/5
f 150/2/5 145/2/5 149/2/5
f 151/2/5 145/2/5 150/2/5
f 152/2/5 146/2/5 123/2/5
f 152/2/5 147/2/5 146/2/5
f 152/2/5 148/2/5 147/2/5
f 153/2/5 148/2/5 152/2/5
f 154/2/5 152/2/5 123/2/5
f 155/3/5 153/3/5 152/3/5
f 155/2/5 152/2/5 154/2/5
f 156/2/5 148/2/5 153/2/5
f 156/3/5 153/3/5 155/3/5
f 157/3/5 149/3/5 148/3/5
f 157/2/5 148/2/5 156/2/5
f 158/2/5 150/2/5 149/2/5
f 158/3/5 149/3/5 157/3/5
f 159/3/5 151/3/5 150/3/5
f 159/2/5 150/2/5 158/2/5
f 160/3/5 151/3/5 159/3/5
f 161/1/6 162/1/6 163/1/6
f 163/1/6 162/1/6 164/1/6
f 165/3/6 166/3/6 173/3/6
f 166/2/6 167/2/6 174/2/6
f 173/3/6 166/3/6 174/3/6
f 168/2/6 169/2/6 175/2/6
f 169/3/6 170/3/6 175/3/6
f 170/2/6 171/2/6 176/2/6
f 175/3/6 170/3/6 176/3/6
f 171/3/6 172/3/6 177/3/6
f 176/2/6 171/2/6 177/2/6
f 177/3/6 172/3/6 178/3/6
f 173/2/6 174/2/6 179/2/6
f 174/2/6 167/2/6 180/2/6
f 179/2/6 174/2/6 180/2/6
f 167/3/6 168/3/6 181/3/6
f 180/2/6 167/2/6 181/2/6
f 175/2/6 176/2/6 182/2/6
f 181/3/6 168/3/6 182/3/6
f 168/2/6 175/2/6 182/2/6
f 177/2/6 178/2/6 182/2/6
f 176/2/6 177/2/6 182/2/6
f 182/2/6 178/2/6 183/2/6
f 183/2/6 178/2/6 184/2/6
f 184/2/6 178/2/6 185/2/6
f 185/2/6 178/2/6 186/2/6
f 180/2/6 181/2/6 187/2/6
f 181/2/6 182/2/6 187/2/6
f 182/2/6 183/2/6 187/2/6
f 187/2/6 183/2/6 188/2/6
f 179/3/6 180/3/6 189/3/6
f 180/2/6 187/2/6 190/2/6
f 189/3/6 180/3/6 190/3/6
f 188/2/6 183/2/6 191/2/6
f 183/3/6 184/3/6 191/3/6
f 184/2/6 185/2/6 192/2/6
f 191/3/6 184/3/6 192/3/6
f 185/3/6 186/3/6 193/3/6
f 192/2/6 185/2/6 193/2/6
f 193/3/6 186/3/6 194/3/6
f 189/2/6 190/2/6 195/2/6
f 190/2/6 187/2/6 196/2/6
f 195/2/6 190/2/6 196/2/6
f 187/3/6 188/3/6 197/3/6
f 196/2/6 187/2/6 197/2/6
f 191/2/6 192/2/6 198/2/6
f 197/3/6 188/3/6 198/3/6
f 188/2/6 191/2/6 198/2/6
f 193/2/6 194/2/6 198/2/6
f 192/2/6 193/2/6 198/2/6
f 198/2/6 194/2/6 199/2/6
f 199/2/6 194/2/6 200/2/6
f 200/2/6 194/2/6 201/2/6
f 201/2/6 194/2/6 202/2/6
f 196/2/6 197/2/6 203/2/6
f 197/2/6 198/2/6 203/2/6
f 198/2/6 199/2/6 203/2/6
f 203/2/6 199/2/6 204/2/6
f 195/3/6 196/3/6 205/3/6
f 196/2/6 203/2/6 206/2/6
f 205/3/6 196/3/6 206/3/6
f 203/3/6 204/3/6 207/3/6
f 206/2/6 203/2/6 207/2/6
f 204/2/6 199/2/6 208/2/6
f 207/3/6 204/3/6 208/3/6
f 199/3/6 200/3/6 209/3/6
f 208/2/6 199/2/6 209/2/6
f 200/2/6 201/2/6 210/2/6
f 209/3/6 200/3/6 210/3/6
f 201/3/6 202/3/6 211/3/6
f 210/2/6 201/2/6 211/2/6
f 211/3/6 202/3/6 212/3/6
