# MagicaVoxel @ Ephtracy

# group
o 

# material
mtllib XD.mtl
usemtl palette

# normals
vn -1 0 0
vn 1 0 0
vn 0 0 1
vn 0 0 -1
vn 0 -1 0
vn 0 1 0

# texcoords
vt 0.537109 0.5
vt 0.771484 0.5
vt 0.888672 0.5
vt 0.900391 0.5

# verts
v -0.5 0 0.5
v -0.5 0 -0.5
v -0.5 0.7 0.5
v -0.5 0.7 -0.5
v -0.5 0.9 0.5
v -0.5 0.9 -0.5
v -0.5 1 0.5
v -0.5 1 -0.5
v 0.4 0.1 0.4
v 0.4 0.1 -0.4
v 0.4 0.7 0.4
v 0.4 0.7 -0.4
v 0.4 0.9 0.4
v 0.4 0.9 0.3
v 0.4 0.9 0.2
v 0.4 0.9 0.1
v 0.4 0.9 -0.1
v 0.4 0.9 -0.2
v 0.4 0.9 -0.3
v 0.4 0.9 -0.4
v -0.4 0.1 0.4
v -0.4 0.1 -0.4
v -0.4 0.7 0.4
v -0.4 0.7 -0.4
v -0.4 0.9 0.4
v -0.4 0.9 0.3
v -0.4 0.9 0.2
v -0.4 0.9 0.1
v -0.4 0.9 -0.1
v -0.4 0.9 -0.2
v -0.4 0.9 -0.3
v -0.4 0.9 -0.4
v 0.5 0 0.5
v 0.5 0 -0.5
v 0.5 0.7 0.5
v 0.5 0.7 -0.5
v 0.5 0.9 0.5
v 0.5 0.9 -0.5
v 0.5 1 0.5
v 0.5 1 -0.5
v -0.5 0 0.5
v -0.5 0.7 0.5
v -0.5 0.9 0.5
v -0.5 1 0.5
v 0.5 0 0.5
v 0.5 0.7 0.5
v 0.5 0.9 0.5
v 0.5 1 0.5
v -0.4 0.1 -0.4
v -0.4 0.7 -0.4
v -0.4 0.9 -0.4
v -0.3 0.9 -0.4
v -0.2 0.9 -0.4
v -0.1 0.9 -0.4
v 0.1 0.9 -0.4
v 0.2 0.9 -0.4
v 0.3 0.9 -0.4
v 0.4 0.1 -0.4
v 0.4 0.7 -0.4
v 0.4 0.9 -0.4
v -0.4 0.1 0.4
v -0.4 0.7 0.4
v -0.4 0.9 0.4
v -0.3 0.9 0.4
v -0.2 0.9 0.4
v -0.1 0.9 0.4
v 0.1 0.9 0.4
v 0.2 0.9 0.4
v 0.3 0.9 0.4
v 0.4 0.1 0.4
v 0.4 0.7 0.4
v 0.4 0.9 0.4
v -0.5 0 -0.5
v -0.5 0.7 -0.5
v -0.5 0.9 -0.5
v -0.5 1 -0.5
v 0.5 0 -0.5
v 0.5 0.7 -0.5
v 0.5 0.9 -0.5
v 0.5 1 -0.5
v -0.5 0 0.5
v 0.5 0 0.5
v -0.5 0 -0.5
v 0.5 0 -0.5
v -0.4 0.9 0.4
v -0.3 0.9 0.4
v -0.2 0.9 0.4
v -0.1 0.9 0.4
v 0.1 0.9 0.4
v 0.2 0.9 0.4
v 0.3 0.9 0.4
v 0.4 0.9 0.4
v -0.4 0.9 0.3
v -0.3 0.9 0.3
v -0.2 0.9 0.3
v -0.1 0.9 0.3
v 0.1 0.9 0.3
v 0.2 0.9 0.3
v 0.3 0.9 0.3
v 0.4 0.9 0.3
v -0.4 0.9 0.2
v -0.3 0.9 0.2
v -0.2 0.9 0.2
v -0.1 0.9 0.2
v 0.1 0.9 0.2
v 0.2 0.9 0.2
v 0.3 0.9 0.2
v 0.4 0.9 0.2
v -0.4 0.9 0.1
v -0.3 0.9 0.1
v -0.2 0.9 0.1
v -0.1 0.9 0.1
v 0.1 0.9 0.1
v 0.2 0.9 0.1
v 0.3 0.9 0.1
v 0.4 0.9 0.1
v -0.4 0.9 -0.1
v -0.3 0.9 -0.1
v -0.2 0.9 -0.1
v -0.1 0.9 -0.1
v 0.1 0.9 -0.1
v 0.2 0.9 -0.1
v 0.3 0.9 -0.1
v 0.4 0.9 -0.1
v -0.4 0.9 -0.2
v -0.3 0.9 -0.2
v -0.2 0.9 -0.2
v -0.1 0.9 -0.2
v 0.1 0.9 -0.2
v 0.2 0.9 -0.2
v 0.3 0.9 -0.2
v 0.4 0.9 -0.2
v -0.4 0.9 -0.3
v -0.3 0.9 -0.3
v -0.2 0.9 -0.3
v -0.1 0.9 -0.3
v 0.1 0.9 -0.3
v 0.2 0.9 -0.3
v 0.3 0.9 -0.3
v 0.4 0.9 -0.3
v -0.4 0.9 -0.4
v -0.3 0.9 -0.4
v -0.2 0.9 -0.4
v -0.1 0.9 -0.4
v 0.1 0.9 -0.4
v 0.2 0.9 -0.4
v 0.3 0.9 -0.4
v 0.4 0.9 -0.4
v -0.4 0.1 0.4
v 0.4 0.1 0.4
v -0.4 0.1 -0.4
v 0.4 0.1 -0.4
v -0.5 1 0.5
v 0.5 1 0.5
v -0.4 1 0.4
v -0.3 1 0.4
v -0.2 1 0.4
v -0.1 1 0.4
v 0.1 1 0.4
v 0.2 1 0.4
v 0.3 1 0.4
v 0.4 1 0.4
v -0.4 1 0.3
v -0.3 1 0.3
v -0.2 1 0.3
v -0.1 1 0.3
v 0.1 1 0.3
v 0.2 1 0.3
v 0.3 1 0.3
v 0.4 1 0.3
v -0.4 1 0.2
v -0.3 1 0.2
v -0.2 1 0.2
v -0.1 1 0.2
v 0.1 1 0.2
v 0.2 1 0.2
v 0.3 1 0.2
v 0.4 1 0.2
v -0.4 1 0.1
v -0.3 1 0.1
v -0.2 1 0.1
v -0.1 1 0.1
v 0.1 1 0.1
v 0.2 1 0.1
v 0.3 1 0.1
v 0.4 1 0.1
v -0.4 1 -0.1
v -0.3 1 -0.1
v -0.2 1 -0.1
v -0.1 1 -0.1
v 0.1 1 -0.1
v 0.2 1 -0.1
v 0.3 1 -0.1
v 0.4 1 -0.1
v -0.4 1 -0.2
v -0.3 1 -0.2
v -0.2 1 -0.2
v -0.1 1 -0.2
v 0.1 1 -0.2
v 0.2 1 -0.2
v 0.3 1 -0.2
v 0.4 1 -0.2
v -0.4 1 -0.3
v -0.3 1 -0.3
v -0.2 1 -0.3
v -0.1 1 -0.3
v 0.1 1 -0.3
v 0.2 1 -0.3
v 0.3 1 -0.3
v 0.4 1 -0.3
v -0.4 1 -0.4
v -0.3 1 -0.4
v -0.2 1 -0.4
v -0.1 1 -0.4
v 0.1 1 -0.4
v 0.2 1 -0.4
v 0.3 1 -0.4
v 0.4 1 -0.4
v -0.5 1 -0.5
v 0.5 1 -0.5

# faces
f 3/1/1 2/1/1 1/1/1
f 4/1/1 2/1/1 3/1/1
f 5/4/1 4/4/1 3/4/1
f 6/4/1 4/4/1 5/4/1
f 7/3/1 6/3/1 5/3/1
f 8/3/1 6/3/1 7/3/1
f 11/1/1 10/1/1 9/1/1
f 12/1/1 10/1/1 11/1/1
f 13/4/1 12/4/1 11/4/1
f 14/4/1 12/4/1 13/4/1
f 15/4/1 12/4/1 14/4/1
f 16/4/1 12/4/1 15/4/1
f 17/4/1 12/4/1 16/4/1
f 18/4/1 12/4/1 17/4/1
f 19/4/1 12/4/1 18/4/1
f 20/4/1 12/4/1 19/4/1
f 21/1/2 22/1/2 23/1/2
f 23/1/2 22/1/2 24/1/2
f 23/4/2 24/4/2 25/4/2
f 25/4/2 24/4/2 26/4/2
f 26/4/2 24/4/2 27/4/2
f 27/4/2 24/4/2 28/4/2
f 28/4/2 24/4/2 29/4/2
f 29/4/2 24/4/2 30/4/2
f 30/4/2 24/4/2 31/4/2
f 31/4/2 24/4/2 32/4/2
f 33/1/2 34/1/2 35/1/2
f 35/1/2 34/1/2 36/1/2
f 35/4/2 36/4/2 37/4/2
f 37/4/2 36/4/2 38/4/2
f 37/3/2 38/3/2 39/3/2
f 39/3/2 38/3/2 40/3/2
f 45/1/3 42/1/3 41/1/3
f 46/4/3 43/4/3 42/4/3
f 46/1/3 42/1/3 45/1/3
f 47/3/3 44/3/3 43/3/3
f 47/4/3 43/4/3 46/4/3
f 48/3/3 44/3/3 47/3/3
f 52/4/3 51/4/3 50/4/3
f 53/4/3 52/4/3 50/4/3
f 54/4/3 53/4/3 50/4/3
f 55/4/3 54/4/3 50/4/3
f 56/4/3 55/4/3 50/4/3
f 57/4/3 56/4/3 50/4/3
f 58/1/3 50/1/3 49/1/3
f 59/4/3 57/4/3 50/4/3
f 59/1/3 50/1/3 58/1/3
f 60/4/3 57/4/3 59/4/3
f 62/4/4 63/4/4 64/4/4
f 62/4/4 64/4/4 65/4/4
f 62/4/4 65/4/4 66/4/4
f 62/4/4 66/4/4 67/4/4
f 62/4/4 67/4/4 68/4/4
f 62/4/4 68/4/4 69/4/4
f 61/1/4 62/1/4 70/1/4
f 62/4/4 69/4/4 71/4/4
f 70/1/4 62/1/4 71/1/4
f 71/4/4 69/4/4 72/4/4
f 73/1/4 74/1/4 77/1/4
f 74/4/4 75/4/4 78/4/4
f 77/1/4 74/1/4 78/1/4
f 75/3/4 76/3/4 79/3/4
f 78/4/4 75/4/4 79/4/4
f 79/3/4 76/3/4 80/3/4
f 83/1/5 82/1/5 81/1/5
f 84/1/5 82/1/5 83/1/5
f 93/2/5 86/2/5 85/2/5
f 94/3/5 87/3/5 86/3/5
f 94/2/5 86/2/5 93/2/5
f 95/2/5 88/2/5 87/2/5
f 95/3/5 87/3/5 94/3/5
f 96/3/5 89/3/5 88/3/5
f 96/2/5 88/2/5 95/2/5
f 97/2/5 90/2/5 89/2/5
f 97/3/5 89/3/5 96/3/5
f 98/3/5 91/3/5 90/3/5
f 98/2/5 90/2/5 97/2/5
f 99/2/5 92/2/5 91/2/5
f 99/3/5 91/3/5 98/3/5
f 100/2/5 92/2/5 99/2/5
f 101/3/5 98/3/5 97/3/5
f 101/3/5 94/3/5 93/3/5
f 101/3/5 100/3/5 99/3/5
f 101/3/5 99/3/5 98/3/5
f 101/3/5 97/3/5 96/3/5
f 101/3/5 96/3/5 95/3/5
f 101/3/5 95/3/5 94/3/5
f 102/3/5 100/3/5 101/3/5
f 103/3/5 100/3/5 102/3/5
f 104/3/5 100/3/5 103/3/5
f 105/3/5 100/3/5 104/3/5
f 106/3/5 100/3/5 105/3/5
f 107/3/5 100/3/5 106/3/5
f 108/3/5 100/3/5 107/3/5
f 109/2/5 102/2/5 101/2/5
f 110/3/5 103/3/5 102/3/5
f 110/2/5 102/2/5 109/2/5
f 111/2/5 104/2/5 103/2/5
f 111/3/5 103/3/5 110/3/5
f 112/3/5 105/3/5 104/3/5
f 112/2/5 104/2/5 111/2/5
f 113/2/5 106/2/5 105/2/5
f 113/3/5 105/3/5 112/3/5
f 114/3/5 107/3/5 106/3/5
f 114/2/5 106/2/5 113/2/5
f 115/2/5 108/2/5 107/2/5
f 115/3/5 107/3/5 114/3/5
f 116/2/5 108/2/5 115/2/5
f 117/3/5 110/3/5 109/3/5
f 117/3/5 111/3/5 110/3/5
f 117/3/5 116/3/5 115/3/5
f 117/3/5 115/3/5 114/3/5
f 117/3/5 114/3/5 113/3/5
f 117/3/5 113/3/5 112/3/5
f 117/3/5 112/3/5 111/3/5
f 118/3/5 116/3/5 117/3/5
f 119/3/5 116/3/5 118/3/5
f 120/3/5 116/3/5 119/3/5
f 121/3/5 116/3/5 120/3/5
f 122/3/5 116/3/5 121/3/5
f 123/3/5 116/3/5 122/3/5
f 124/3/5 116/3/5 123/3/5
f 125/2/5 118/2/5 117/2/5
f 126/3/5 119/3/5 118/3/5
f 126/2/5 118/2/5 125/2/5
f 127/2/5 120/2/5 119/2/5
f 127/3/5 119/3/5 126/3/5
f 128/3/5 121/3/5 120/3/5
f 128/2/5 120/2/5 127/2/5
f 129/2/5 122/2/5 121/2/5
f 129/3/5 121/3/5 128/3/5
f 130/3/5 123/3/5 122/3/5
f 130/2/5 122/2/5 129/2/5
f 131/2/5 124/2/5 123/2/5
f 131/3/5 123/3/5 130/3/5
f 132/2/5 124/2/5 131/2/5
f 133/3/5 126/3/5 125/3/5
f 133/3/5 127/3/5 126/3/5
f 133/3/5 132/3/5 131/3/5
f 133/3/5 131/3/5 130/3/5
f 133/3/5 130/3/5 129/3/5
f 133/3/5 129/3/5 128/3/5
f 133/3/5 128/3/5 127/3/5
f 134/3/5 132/3/5 133/3/5
f 135/3/5 132/3/5 134/3/5
f 136/3/5 132/3/5 135/3/5
f 137/3/5 132/3/5 136/3/5
f 138/3/5 132/3/5 137/3/5
f 139/3/5 132/3/5 138/3/5
f 140/3/5 132/3/5 139/3/5
f 141/2/5 134/2/5 133/2/5
f 142/3/5 135/3/5 134/3/5
f 142/2/5 134/2/5 141/2/5
f 143/2/5 136/2/5 135/2/5
f 143/3/5 135/3/5 142/3/5
f 144/3/5 137/3/5 136/3/5
f 144/2/5 136/2/5 143/2/5
f 145/2/5 138/2/5 137/2/5
f 145/3/5 137/3/5 144/3/5
f 146/3/5 139/3/5 138/3/5
f 146/2/5 138/2/5 145/2/5
f 147/2/5 140/2/5 139/2/5
f 147/3/5 139/3/5 146/3/5
f 148/2/5 140/2/5 147/2/5
f 149/1/6 150/1/6 151/1/6
f 151/1/6 150/1/6 152/1/6
f 153/3/6 154/3/6 155/3/6
f 155/3/6 154/3/6 156/3/6
f 156/3/6 154/3/6 157/3/6
f 157/3/6 154/3/6 158/3/6
f 158/3/6 154/3/6 159/3/6
f 159/3/6 154/3/6 160/3/6
f 160/3/6 154/3/6 161/3/6
f 161/3/6 154/3/6 162/3/6
f 153/3/6 155/3/6 163/3/6
f 155/2/6 156/2/6 163/2/6
f 156/3/6 157/3/6 164/3/6
f 163/2/6 156/2/6 164/2/6
f 157/2/6 158/2/6 165/2/6
f 164/3/6 157/3/6 165/3/6
f 158/3/6 159/3/6 166/3/6
f 165/2/6 158/2/6 166/2/6
f 159/2/6 160/2/6 167/2/6
f 166/3/6 159/3/6 167/3/6
f 160/3/6 161/3/6 168/3/6
f 167/2/6 160/2/6 168/2/6
f 161/2/6 162/2/6 169/2/6
f 168/3/6 161/3/6 169/3/6
f 162/3/6 154/3/6 170/3/6
f 169/2/6 162/2/6 170/2/6
f 168/3/6 169/3/6 171/3/6
f 167/3/6 168/3/6 171/3/6
f 169/3/6 170/3/6 171/3/6
f 166/3/6 167/3/6 171/3/6
f 165/3/6 166/3/6 171/3/6
f 164/3/6 165/3/6 171/3/6
f 163/3/6 164/3/6 171/3/6
f 153/3/6 163/3/6 171/3/6
f 171/3/6 170/3/6 172/3/6
f 172/3/6 170/3/6 173/3/6
f 173/3/6 170/3/6 174/3/6
f 174/3/6 170/3/6 175/3/6
f 175/3/6 170/3/6 176/3/6
f 176/3/6 170/3/6 177/3/6
f 170/3/6 154/3/6 178/3/6
f 177/3/6 170/3/6 178/3/6
f 153/3/6 171/3/6 179/3/6
f 171/2/6 172/2/6 179/2/6
f 172/3/6 173/3/6 180/3/6
f 179/2/6 172/2/6 180/2/6
f 173/2/6 174/2/6 181/2/6
f 180/3/6 173/3/6 181/3/6
f 174/3/6 175/3/6 182/3/6
f 181/2/6 174/2/6 182/2/6
f 175/2/6 176/2/6 183/2/6
f 182/3/6 175/3/6 183/3/6
f 176/3/6 177/3/6 184/3/6
f 183/2/6 176/2/6 184/2/6
f 177/2/6 178/2/6 185/2/6
f 184/3/6 177/3/6 185/3/6
f 178/3/6 154/3/6 186/3/6
f 185/2/6 178/2/6 186/2/6
f 182/3/6 183/3/6 187/3/6
f 184/3/6 185/3/6 187/3/6
f 185/3/6 186/3/6 187/3/6
f 181/3/6 182/3/6 187/3/6
f 180/3/6 181/3/6 187/3/6
f 179/3/6 180/3/6 187/3/6
f 153/3/6 179/3/6 187/3/6
f 183/3/6 184/3/6 187/3/6
f 187/3/6 186/3/6 188/3/6
f 188/3/6 186/3/6 189/3/6
f 189/3/6 186/3/6 190/3/6
f 190/3/6 186/3/6 191/3/6
f 191/3/6 186/3/6 192/3/6
f 192/3/6 186/3/6 193/3/6
f 186/3/6 154/3/6 194/3/6
f 193/3/6 186/3/6 194/3/6
f 153/3/6 187/3/6 195/3/6
f 187/2/6 188/2/6 195/2/6
f 188/3/6 189/3/6 196/3/6
f 195/2/6 188/2/6 196/2/6
f 189/2/6 190/2/6 197/2/6
f 196/3/6 189/3/6 197/3/6
f 190/3/6 191/3/6 198/3/6
f 197/2/6 190/2/6 198/2/6
f 191/2/6 192/2/6 199/2/6
f 198/3/6 191/3/6 199/3/6
f 192/3/6 193/3/6 200/3/6
f 199/2/6 192/2/6 200/2/6
f 193/2/6 194/2/6 201/2/6
f 200/3/6 193/3/6 201/3/6
f 194/3/6 154/3/6 202/3/6
f 201/2/6 194/2/6 202/2/6
f 198/3/6 199/3/6 203/3/6
f 200/3/6 201/3/6 203/3/6
f 201/3/6 202/3/6 203/3/6
f 197/3/6 198/3/6 203/3/6
f 196/3/6 197/3/6 203/3/6
f 195/3/6 196/3/6 203/3/6
f 153/3/6 195/3/6 203/3/6
f 199/3/6 200/3/6 203/3/6
f 203/3/6 202/3/6 204/3/6
f 204/3/6 202/3/6 205/3/6
f 205/3/6 202/3/6 206/3/6
f 206/3/6 202/3/6 207/3/6
f 207/3/6 202/3/6 208/3/6
f 208/3/6 202/3/6 209/3/6
f 202/3/6 154/3/6 210/3/6
f 209/3/6 202/3/6 210/3/6
f 153/3/6 203/3/6 211/3/6
f 203/2/6 204/2/6 211/2/6
f 204/3/6 205/3/6 212/3/6
f 211/2/6 204/2/6 212/2/6
f 205/2/6 206/2/6 213/2/6
f 212/3/6 205/3/6 213/3/6
f 206/3/6 207/3/6 214/3/6
f 213/2/6 206/2/6 214/2/6
f 207/2/6 208/2/6 215/2/6
f 214/3/6 207/3/6 215/3/6
f 208/3/6 209/3/6 216/3/6
f 215/2/6 208/2/6 216/2/6
f 209/2/6 210/2/6 217/2/6
f 216/3/6 209/3/6 217/3/6
f 210/3/6 154/3/6 218/3/6
f 217/2/6 210/2/6 218/2/6
f 214/3/6 215/3/6 219/3/6
f 216/3/6 217/3/6 219/3/6
f 217/3/6 218/3/6 219/3/6
f 213/3/6 214/3/6 219/3/6
f 212/3/6 213/3/6 219/3/6
f 211/3/6 212/3/6 219/3/6
f 153/3/6 211/3/6 219/3/6
f 215/3/6 216/3/6 219/3/6
f 218/3/6 154/3/6 220/3/6
f 219/3/6 218/3/6 220/3/6
