# MagicaVoxel @ Ephtracy

# group
o 

# material
mtllib greenBuildingModel.mtl
usemtl palette

# normals
vn -1 0 0
vn 1 0 0
vn 0 0 1
vn 0 0 -1
vn 0 -1 0
vn 0 1 0

# texcoords
vt 0.947266 0.5
vt 0.951172 0.5
vt 0.955078 0.5
vt 0.966797 0.5
vt 0.978516 0.5
vt 0.982422 0.5
vt 0.990234 0.5

# verts
v -1 0 1.6
v -1 0 -0.8
v -1 2.2 1.2
v -1 2.2 0.7
v -1 2.2 -0.1
v -1 2.2 -0.6
v -1 2.3 1.1
v -1 2.3 1
v -1 2.3 0.9
v -1 2.3 0.8
v -1 2.3 -0.2
v -1 2.3 -0.3
v -1 2.3 -0.4
v -1 2.3 -0.5
v -1 2.4 1.1
v -1 2.4 1
v -1 2.4 0.9
v -1 2.4 0.8
v -1 2.4 -0.2
v -1 2.4 -0.3
v -1 2.4 -0.4
v -1 2.4 -0.5
v -1 2.5 1.1
v -1 2.5 1
v -1 2.5 0.9
v -1 2.5 0.8
v -1 2.5 -0.2
v -1 2.5 -0.3
v -1 2.5 -0.4
v -1 2.5 -0.5
v -1 2.6 1.1
v -1 2.6 1
v -1 2.6 0.9
v -1 2.6 0.8
v -1 2.6 -0.2
v -1 2.6 -0.3
v -1 2.6 -0.4
v -1 2.6 -0.5
v -1 2.7 1.1
v -1 2.7 1
v -1 2.7 0.9
v -1 2.7 0.8
v -1 2.7 -0.2
v -1 2.7 -0.3
v -1 2.7 -0.4
v -1 2.7 -0.5
v -1 2.8 1.1
v -1 2.8 1
v -1 2.8 0.9
v -1 2.8 0.8
v -1 2.8 -0.2
v -1 2.8 -0.3
v -1 2.8 -0.4
v -1 2.8 -0.5
v -1 2.9 1.2
v -1 2.9 0.7
v -1 2.9 -0.1
v -1 2.9 -0.6
v -1 3.2 1.6
v -1 3.2 -0.8
v -1 3.6 1.6
v -1 3.6 -0.8
v -1 3.8 1.6
v -1 3.8 -0.8
v -0.2 0.4 -0.8
v -0.2 0.4 -1
v -0.2 0.6 -0.8
v -0.2 0.6 -1
v 1.19209e-07 0.4 -0.8
v 1.19209e-07 0.4 -1
v 1.19209e-07 0.6 -0.8
v 1.19209e-07 0.6 -1
v 1.4 0 1.6
v 1.4 0 -0.8
v 1.4 2.2 1.2
v 1.4 2.2 0.7
v 1.4 2.2 -0.1
v 1.4 2.2 -0.6
v 1.4 2.3 1.1
v 1.4 2.3 1
v 1.4 2.3 0.9
v 1.4 2.3 0.8
v 1.4 2.3 -0.2
v 1.4 2.3 -0.3
v 1.4 2.3 -0.4
v 1.4 2.3 -0.5
v 1.4 2.4 1.1
v 1.4 2.4 1
v 1.4 2.4 0.9
v 1.4 2.4 0.8
v 1.4 2.4 -0.2
v 1.4 2.4 -0.3
v 1.4 2.4 -0.4
v 1.4 2.4 -0.5
v 1.4 2.5 1.1
v 1.4 2.5 1
v 1.4 2.5 0.9
v 1.4 2.5 0.8
v 1.4 2.5 -0.2
v 1.4 2.5 -0.3
v 1.4 2.5 -0.4
v 1.4 2.5 -0.5
v 1.4 2.6 1.1
v 1.4 2.6 1
v 1.4 2.6 0.9
v 1.4 2.6 0.8
v 1.4 2.6 -0.2
v 1.4 2.6 -0.3
v 1.4 2.6 -0.4
v 1.4 2.6 -0.5
v 1.4 2.7 1.1
v 1.4 2.7 1
v 1.4 2.7 0.9
v 1.4 2.7 0.8
v 1.4 2.7 -0.2
v 1.4 2.7 -0.3
v 1.4 2.7 -0.4
v 1.4 2.7 -0.5
v 1.4 2.8 1.1
v 1.4 2.8 1
v 1.4 2.8 0.9
v 1.4 2.8 0.8
v 1.4 2.8 -0.2
v 1.4 2.8 -0.3
v 1.4 2.8 -0.4
v 1.4 2.8 -0.5
v 1.4 2.9 1.2
v 1.4 2.9 0.7
v 1.4 2.9 -0.1
v 1.4 2.9 -0.6
v 1.4 3.2 1.6
v 1.4 3.2 -0.8
v 1.4 3.6 1.6
v 1.4 3.6 -0.8
v 1.4 3.8 1.6
v 1.4 3.8 -0.8
v -1 0 1.6
v -1 3.2 1.6
v -1 3.6 1.6
v -1 3.8 1.6
v 1.4 0 1.6
v 1.4 3.2 1.6
v 1.4 3.6 1.6
v 1.4 3.8 1.6
v -1 0 -0.8
v -1 3.2 -0.8
v -1 3.6 -0.8
v -1 3.8 -0.8
v -0.7 2.2 -0.8
v -0.7 2.9 -0.8
v -0.6 2.3 -0.8
v -0.6 2.4 -0.8
v -0.6 2.5 -0.8
v -0.6 2.6 -0.8
v -0.6 2.7 -0.8
v -0.6 2.8 -0.8
v -0.5 2.3 -0.8
v -0.5 2.4 -0.8
v -0.5 2.5 -0.8
v -0.5 2.6 -0.8
v -0.5 2.7 -0.8
v -0.5 2.8 -0.8
v -0.4 0 -0.8
v -0.4 1 -0.8
v -0.4 2.3 -0.8
v -0.4 2.4 -0.8
v -0.4 2.5 -0.8
v -0.4 2.6 -0.8
v -0.4 2.7 -0.8
v -0.4 2.8 -0.8
v -0.3 2.3 -0.8
v -0.3 2.4 -0.8
v -0.3 2.5 -0.8
v -0.3 2.6 -0.8
v -0.3 2.7 -0.8
v -0.3 2.8 -0.8
v -0.2 0 -0.8
v -0.2 0.4 -0.8
v -0.2 0.6 -0.8
v -0.2 0.8 -0.8
v -0.2 2.2 -0.8
v -0.2 2.9 -0.8
v 1.19209e-07 0.4 -0.8
v 1.19209e-07 0.6 -0.8
v 0.4 0 -0.8
v 0.4 0.8 -0.8
v 0.6 0 -0.8
v 0.6 1 -0.8
v 0.6 2.2 -0.8
v 0.6 2.9 -0.8
v 0.7 2.3 -0.8
v 0.7 2.4 -0.8
v 0.7 2.5 -0.8
v 0.7 2.6 -0.8
v 0.7 2.7 -0.8
v 0.7 2.8 -0.8
v 0.8 2.3 -0.8
v 0.8 2.4 -0.8
v 0.8 2.5 -0.8
v 0.8 2.6 -0.8
v 0.8 2.7 -0.8
v 0.8 2.8 -0.8
v 0.9 2.3 -0.8
v 0.9 2.4 -0.8
v 0.9 2.5 -0.8
v 0.9 2.6 -0.8
v 0.9 2.7 -0.8
v 0.9 2.8 -0.8
v 1 2.3 -0.8
v 1 2.4 -0.8
v 1 2.5 -0.8
v 1 2.6 -0.8
v 1 2.7 -0.8
v 1 2.8 -0.8
v 1.1 2.2 -0.8
v 1.1 2.9 -0.8
v 1.4 0 -0.8
v 1.4 3.2 -0.8
v 1.4 3.6 -0.8
v 1.4 3.8 -0.8
v -0.2 0.4 -1
v -0.2 0.6 -1
v 1.19209e-07 0.4 -1
v 1.19209e-07 0.6 -1
v -1 0 1.6
v 1.4 0 1.6
v -0.9 0 1.5
v 1.3 0 1.5
v -0.4 0 -0.6
v -0.2 0 -0.6
v 0.4 0 -0.6
v 0.6 0 -0.6
v -0.9 0 -0.7
v -0.4 0 -0.7
v 0.6 0 -0.7
v 1.3 0 -0.7
v -1 0 -0.8
v -0.4 0 -0.8
v -0.2 0 -0.8
v 0.4 0 -0.8
v 0.6 0 -0.8
v 1.4 0 -0.8
v -0.2 0.4 -0.8
v 1.19209e-07 0.4 -0.8
v -0.2 0.4 -1
v 1.19209e-07 0.4 -1
v -0.2 0.6 -0.8
v 1.19209e-07 0.6 -0.8
v -0.2 0.6 -1
v 1.19209e-07 0.6 -1
v -1 3.8 1.6
v 1.4 3.8 1.6
v -1 3.8 -0.8
v 1.4 3.8 -0.8

# faces
f 3/1/1 2/1/1 1/1/1
f 4/1/1 2/1/1 3/1/1
f 5/1/1 2/1/1 4/1/1
f 6/1/1 2/1/1 5/1/1
f 7/5/1 4/5/1 3/5/1
f 8/5/1 4/5/1 7/5/1
f 9/5/1 4/5/1 8/5/1
f 10/5/1 4/5/1 9/5/1
f 11/5/1 6/5/1 5/5/1
f 12/5/1 6/5/1 11/5/1
f 13/5/1 6/5/1 12/5/1
f 14/5/1 6/5/1 13/5/1
f 15/5/1 7/5/1 3/5/1
f 15/7/1 8/7/1 7/7/1
f 16/5/1 9/5/1 8/5/1
f 16/7/1 8/7/1 15/7/1
f 17/7/1 10/7/1 9/7/1
f 17/5/1 9/5/1 16/5/1
f 18/5/1 4/5/1 10/5/1
f 18/7/1 10/7/1 17/7/1
f 19/5/1 11/5/1 5/5/1
f 19/7/1 12/7/1 11/7/1
f 20/5/1 13/5/1 12/5/1
f 20/7/1 12/7/1 19/7/1
f 21/7/1 14/7/1 13/7/1
f 21/5/1 13/5/1 20/5/1
f 22/5/1 6/5/1 14/5/1
f 22/7/1 14/7/1 21/7/1
f 23/5/1 17/5/1 16/5/1
f 23/5/1 15/5/1 3/5/1
f 23/5/1 16/5/1 15/5/1
f 23/5/1 18/5/1 17/5/1
f 24/5/1 18/5/1 23/5/1
f 25/5/1 18/5/1 24/5/1
f 26/5/1 4/5/1 18/5/1
f 26/5/1 18/5/1 25/5/1
f 27/5/1 21/5/1 20/5/1
f 27/5/1 20/5/1 19/5/1
f 27/5/1 22/5/1 21/5/1
f 27/5/1 19/5/1 5/5/1
f 28/5/1 22/5/1 27/5/1
f 29/5/1 22/5/1 28/5/1
f 30/5/1 6/5/1 22/5/1
f 30/5/1 22/5/1 29/5/1
f 31/7/1 24/7/1 23/7/1
f 31/5/1 23/5/1 3/5/1
f 32/5/1 25/5/1 24/5/1
f 32/7/1 24/7/1 31/7/1
f 33/7/1 26/7/1 25/7/1
f 33/5/1 25/5/1 32/5/1
f 34/5/1 4/5/1 26/5/1
f 34/7/1 26/7/1 33/7/1
f 35/5/1 27/5/1 5/5/1
f 35/7/1 28/7/1 27/7/1
f 36/5/1 29/5/1 28/5/1
f 36/7/1 28/7/1 35/7/1
f 37/7/1 30/7/1 29/7/1
f 37/5/1 29/5/1 36/5/1
f 38/5/1 6/5/1 30/5/1
f 38/7/1 30/7/1 37/7/1
f 39/5/1 33/5/1 32/5/1
f 39/5/1 32/5/1 31/5/1
f 39/5/1 31/5/1 3/5/1
f 39/5/1 34/5/1 33/5/1
f 40/5/1 34/5/1 39/5/1
f 41/5/1 34/5/1 40/5/1
f 42/5/1 4/5/1 34/5/1
f 42/5/1 34/5/1 41/5/1
f 43/5/1 35/5/1 5/5/1
f 43/5/1 38/5/1 37/5/1
f 43/5/1 37/5/1 36/5/1
f 43/5/1 36/5/1 35/5/1
f 44/5/1 38/5/1 43/5/1
f 45/5/1 38/5/1 44/5/1
f 46/5/1 6/5/1 38/5/1
f 46/5/1 38/5/1 45/5/1
f 47/7/1 40/7/1 39/7/1
f 47/5/1 39/5/1 3/5/1
f 48/5/1 41/5/1 40/5/1
f 48/7/1 40/7/1 47/7/1
f 49/7/1 42/7/1 41/7/1
f 49/5/1 41/5/1 48/5/1
f 50/5/1 4/5/1 42/5/1
f 50/7/1 42/7/1 49/7/1
f 51/5/1 43/5/1 5/5/1
f 51/7/1 44/7/1 43/7/1
f 52/5/1 45/5/1 44/5/1
f 52/7/1 44/7/1 51/7/1
f 53/7/1 46/7/1 45/7/1
f 53/5/1 45/5/1 52/5/1
f 54/5/1 6/5/1 46/5/1
f 54/7/1 46/7/1 53/7/1
f 55/1/1 3/1/1 1/1/1
f 55/5/1 49/5/1 48/5/1
f 55/5/1 48/5/1 47/5/1
f 55/5/1 50/5/1 49/5/1
f 55/5/1 47/5/1 3/5/1
f 56/1/1 5/1/1 4/1/1
f 56/5/1 50/5/1 55/5/1
f 56/5/1 4/5/1 50/5/1
f 57/5/1 54/5/1 53/5/1
f 57/1/1 5/1/1 56/1/1
f 57/5/1 51/5/1 5/5/1
f 57/5/1 53/5/1 52/5/1
f 57/5/1 52/5/1 51/5/1
f 58/5/1 6/5/1 54/5/1
f 58/5/1 54/5/1 57/5/1
f 58/1/1 2/1/1 6/1/1
f 59/1/1 57/1/1 56/1/1
f 59/1/1 56/1/1 55/1/1
f 59/1/1 58/1/1 57/1/1
f 59/1/1 55/1/1 1/1/1
f 60/1/1 2/1/1 58/1/1
f 60/1/1 58/1/1 59/1/1
f 61/3/1 60/3/1 59/3/1
f 62/3/1 60/3/1 61/3/1
f 63/5/1 62/5/1 61/5/1
f 64/5/1 62/5/1 63/5/1
f 67/6/1 66/6/1 65/6/1
f 68/6/1 66/6/1 67/6/1
f 69/6/2 70/6/2 71/6/2
f 71/6/2 70/6/2 72/6/2
f 73/1/2 74/1/2 75/1/2
f 75/1/2 74/1/2 76/1/2
f 76/1/2 74/1/2 77/1/2
f 77/1/2 74/1/2 78/1/2
f 75/5/2 76/5/2 79/5/2
f 79/5/2 76/5/2 80/5/2
f 80/5/2 76/5/2 81/5/2
f 81/5/2 76/5/2 82/5/2
f 77/5/2 78/5/2 83/5/2
f 83/5/2 78/5/2 84/5/2
f 84/5/2 78/5/2 85/5/2
f 85/5/2 78/5/2 86/5/2
f 75/5/2 79/5/2 87/5/2
f 79/7/2 80/7/2 87/7/2
f 80/5/2 81/5/2 88/5/2
f 87/7/2 80/7/2 88/7/2
f 81/7/2 82/7/2 89/7/2
f 88/5/2 81/5/2 89/5/2
f 82/5/2 76/5/2 90/5/2
f 89/7/2 82/7/2 90/7/2
f 77/5/2 83/5/2 91/5/2
f 83/7/2 84/7/2 91/7/2
f 84/5/2 85/5/2 92/5/2
f 91/7/2 84/7/2 92/7/2
f 85/7/2 86/7/2 93/7/2
f 92/5/2 85/5/2 93/5/2
f 86/5/2 78/5/2 94/5/2
f 93/7/2 86/7/2 94/7/2
f 88/5/2 89/5/2 95/5/2
f 75/5/2 87/5/2 95/5/2
f 87/5/2 88/5/2 95/5/2
f 89/5/2 90/5/2 95/5/2
f 95/5/2 90/5/2 96/5/2
f 96/5/2 90/5/2 97/5/2
f 90/5/2 76/5/2 98/5/2
f 97/5/2 90/5/2 98/5/2
f 92/5/2 93/5/2 99/5/2
f 91/5/2 92/5/2 99/5/2
f 93/5/2 94/5/2 99/5/2
f 77/5/2 91/5/2 99/5/2
f 99/5/2 94/5/2 100/5/2
f 100/5/2 94/5/2 101/5/2
f 94/5/2 78/5/2 102/5/2
f 101/5/2 94/5/2 102/5/2
f 95/7/2 96/7/2 103/7/2
f 75/5/2 95/5/2 103/5/2
f 96/5/2 97/5/2 104/5/2
f 103/7/2 96/7/2 104/7/2
f 97/7/2 98/7/2 105/7/2
f 104/5/2 97/5/2 105/5/2
f 98/5/2 76/5/2 106/5/2
f 105/7/2 98/7/2 106/7/2
f 77/5/2 99/5/2 107/5/2
f 99/7/2 100/7/2 107/7/2
f 100/5/2 101/5/2 108/5/2
f 107/7/2 100/7/2 108/7/2
f 101/7/2 102/7/2 109/7/2
f 108/5/2 101/5/2 109/5/2
f 102/5/2 78/5/2 110/5/2
f 109/7/2 102/7/2 110/7/2
f 104/5/2 105/5/2 111/5/2
f 103/5/2 104/5/2 111/5/2
f 75/5/2 103/5/2 111/5/2
f 105/5/2 106/5/2 111/5/2
f 111/5/2 106/5/2 112/5/2
f 112/5/2 106/5/2 113/5/2
f 106/5/2 76/5/2 114/5/2
f 113/5/2 106/5/2 114/5/2
f 77/5/2 107/5/2 115/5/2
f 109/5/2 110/5/2 115/5/2
f 108/5/2 109/5/2 115/5/2
f 107/5/2 108/5/2 115/5/2
f 115/5/2 110/5/2 116/5/2
f 116/5/2 110/5/2 117/5/2
f 110/5/2 78/5/2 118/5/2
f 117/5/2 110/5/2 118/5/2
f 111/7/2 112/7/2 119/7/2
f 75/5/2 111/5/2 119/5/2
f 112/5/2 113/5/2 120/5/2
f 119/7/2 112/7/2 120/7/2
f 113/7/2 114/7/2 121/7/2
f 120/5/2 113/5/2 121/5/2
f 114/5/2 76/5/2 122/5/2
f 121/7/2 114/7/2 122/7/2
f 77/5/2 115/5/2 123/5/2
f 115/7/2 116/7/2 123/7/2
f 116/5/2 117/5/2 124/5/2
f 123/7/2 116/7/2 124/7/2
f 117/7/2 118/7/2 125/7/2
f 124/5/2 117/5/2 125/5/2
f 118/5/2 78/5/2 126/5/2
f 125/7/2 118/7/2 126/7/2
f 73/1/2 75/1/2 127/1/2
f 120/5/2 121/5/2 127/5/2
f 119/5/2 120/5/2 127/5/2
f 121/5/2 122/5/2 127/5/2
f 75/5/2 119/5/2 127/5/2
f 76/1/2 77/1/2 128/1/2
f 127/5/2 122/5/2 128/5/2
f 122/5/2 76/5/2 128/5/2
f 125/5/2 126/5/2 129/5/2
f 128/1/2 77/1/2 129/1/2
f 77/5/2 123/5/2 129/5/2
f 124/5/2 125/5/2 129/5/2
f 123/5/2 124/5/2 129/5/2
f 126/5/2 78/5/2 130/5/2
f 129/5/2 126/5/2 130/5/2
f 78/1/2 74/1/2 130/1/2
f 128/1/2 129/1/2 131/1/2
f 127/1/2 128/1/2 131/1/2
f 129/1/2 130/1/2 131/1/2
f 73/1/2 127/1/2 131/1/2
f 130/1/2 74/1/2 132/1/2
f 131/1/2 130/1/2 132/1/2
f 131/3/2 132/3/2 133/3/2
f 133/3/2 132/3/2 134/3/2
f 133/5/2 134/5/2 135/5/2
f 135/5/2 134/5/2 136/5/2
f 141/1/3 138/1/3 137/1/3
f 142/3/3 139/3/3 138/3/3
f 142/1/3 138/1/3 141/1/3
f 143/5/3 140/5/3 139/5/3
f 143/3/3 139/3/3 142/3/3
f 144/5/3 140/5/3 143/5/3
f 145/1/4 146/1/4 149/1/4
f 149/1/4 146/1/4 150/1/4
f 149/5/4 150/5/4 151/5/4
f 151/5/4 150/5/4 152/5/4
f 152/5/4 150/5/4 153/5/4
f 153/5/4 150/5/4 154/5/4
f 154/5/4 150/5/4 155/5/4
f 155/5/4 150/5/4 156/5/4
f 149/5/4 151/5/4 157/5/4
f 151/7/4 152/7/4 157/7/4
f 152/5/4 153/5/4 158/5/4
f 157/7/4 152/7/4 158/7/4
f 153/7/4 154/7/4 159/7/4
f 158/5/4 153/5/4 159/5/4
f 154/5/4 155/5/4 160/5/4
f 159/7/4 154/7/4 160/7/4
f 155/7/4 156/7/4 161/7/4
f 160/5/4 155/5/4 161/5/4
f 156/5/4 150/5/4 162/5/4
f 161/7/4 156/7/4 162/7/4
f 145/1/4 149/1/4 163/1/4
f 163/1/4 149/1/4 164/1/4
f 160/5/4 161/5/4 165/5/4
f 159/5/4 160/5/4 165/5/4
f 149/5/4 157/5/4 165/5/4
f 157/5/4 158/5/4 165/5/4
f 161/5/4 162/5/4 165/5/4
f 158/5/4 159/5/4 165/5/4
f 165/5/4 162/5/4 166/5/4
f 166/5/4 162/5/4 167/5/4
f 167/5/4 162/5/4 168/5/4
f 168/5/4 162/5/4 169/5/4
f 162/5/4 150/5/4 170/5/4
f 169/5/4 162/5/4 170/5/4
f 149/5/4 165/5/4 171/5/4
f 165/7/4 166/7/4 171/7/4
f 166/5/4 167/5/4 172/5/4
f 171/7/4 166/7/4 172/7/4
f 167/7/4 168/7/4 173/7/4
f 172/5/4 167/5/4 173/5/4
f 168/5/4 169/5/4 174/5/4
f 173/7/4 168/7/4 174/7/4
f 169/7/4 170/7/4 175/7/4
f 174/5/4 169/5/4 175/5/4
f 170/5/4 150/5/4 176/5/4
f 175/7/4 170/7/4 176/7/4
f 163/5/4 164/5/4 177/5/4
f 177/5/4 164/5/4 178/5/4
f 178/5/4 164/5/4 179/5/4
f 179/5/4 164/5/4 180/5/4
f 172/5/4 173/5/4 181/5/4
f 164/1/4 149/1/4 181/1/4
f 174/5/4 175/5/4 181/5/4
f 173/5/4 174/5/4 181/5/4
f 149/5/4 171/5/4 181/5/4
f 171/5/4 172/5/4 181/5/4
f 175/5/4 176/5/4 181/5/4
f 150/1/4 146/1/4 182/1/4
f 181/5/4 176/5/4 182/5/4
f 176/5/4 150/5/4 182/5/4
f 177/4/4 178/4/4 183/4/4
f 179/4/4 180/4/4 184/4/4
f 177/4/4 183/4/4 185/4/4
f 183/4/4 184/4/4 185/4/4
f 180/5/4 164/5/4 186/5/4
f 185/4/4 184/4/4 186/4/4
f 184/4/4 180/4/4 186/4/4
f 185/5/4 186/5/4 187/5/4
f 164/1/4 181/1/4 188/1/4
f 187/5/4 186/5/4 188/5/4
f 181/1/4 182/1/4 188/1/4
f 186/5/4 164/5/4 188/5/4
f 188/1/4 182/1/4 189/1/4
f 182/1/4 146/1/4 190/1/4
f 189/1/4 182/1/4 190/1/4
f 189/5/4 190/5/4 191/5/4
f 191/5/4 190/5/4 192/5/4
f 192/5/4 190/5/4 193/5/4
f 193/5/4 190/5/4 194/5/4
f 194/5/4 190/5/4 195/5/4
f 195/5/4 190/5/4 196/5/4
f 189/5/4 191/5/4 197/5/4
f 191/7/4 192/7/4 197/7/4
f 192/5/4 193/5/4 198/5/4
f 197/7/4 192/7/4 198/7/4
f 193/7/4 194/7/4 199/7/4
f 198/5/4 193/5/4 199/5/4
f 194/5/4 195/5/4 200/5/4
f 199/7/4 194/7/4 200/7/4
f 195/7/4 196/7/4 201/7/4
f 200/5/4 195/5/4 201/5/4
f 196/5/4 190/5/4 202/5/4
f 201/7/4 196/7/4 202/7/4
f 200/5/4 201/5/4 203/5/4
f 199/5/4 200/5/4 203/5/4
f 201/5/4 202/5/4 203/5/4
f 198/5/4 199/5/4 203/5/4
f 197/5/4 198/5/4 203/5/4
f 189/5/4 197/5/4 203/5/4
f 203/5/4 202/5/4 204/5/4
f 204/5/4 202/5/4 205/5/4
f 205/5/4 202/5/4 206/5/4
f 206/5/4 202/5/4 207/5/4
f 202/5/4 190/5/4 208/5/4
f 207/5/4 202/5/4 208/5/4
f 189/5/4 203/5/4 209/5/4
f 203/7/4 204/7/4 209/7/4
f 204/5/4 205/5/4 210/5/4
f 209/7/4 204/7/4 210/7/4
f 205/7/4 206/7/4 211/7/4
f 210/5/4 205/5/4 211/5/4
f 206/5/4 207/5/4 212/5/4
f 211/7/4 206/7/4 212/7/4
f 207/7/4 208/7/4 213/7/4
f 212/5/4 207/5/4 213/5/4
f 208/5/4 190/5/4 214/5/4
f 213/7/4 208/7/4 214/7/4
f 188/1/4 189/1/4 215/1/4
f 187/1/4 188/1/4 215/1/4
f 213/5/4 214/5/4 215/5/4
f 209/5/4 210/5/4 215/5/4
f 189/5/4 209/5/4 215/5/4
f 211/5/4 212/5/4 215/5/4
f 212/5/4 213/5/4 215/5/4
f 210/5/4 211/5/4 215/5/4
f 214/5/4 190/5/4 216/5/4
f 215/5/4 214/5/4 216/5/4
f 190/1/4 146/1/4 216/1/4
f 187/1/4 215/1/4 217/1/4
f 215/1/4 216/1/4 217/1/4
f 146/3/4 147/3/4 218/3/4
f 217/1/4 216/1/4 218/1/4
f 216/1/4 146/1/4 218/1/4
f 147/5/4 148/5/4 219/5/4
f 218/3/4 147/3/4 219/3/4
f 219/5/4 148/5/4 220/5/4
f 221/6/4 222/6/4 223/6/4
f 223/6/4 222/6/4 224/6/4
f 227/1/5 226/1/5 225/1/5
f 228/1/5 226/1/5 227/1/5
f 229/2/5 228/2/5 227/2/5
f 230/2/5 228/2/5 229/2/5
f 231/2/5 228/2/5 230/2/5
f 232/2/5 228/2/5 231/2/5
f 233/1/5 227/1/5 225/1/5
f 233/2/5 229/2/5 227/2/5
f 234/5/5 230/5/5 229/5/5
f 234/2/5 229/2/5 233/2/5
f 235/2/5 228/2/5 232/2/5
f 235/5/5 232/5/5 231/5/5
f 236/1/5 226/1/5 228/1/5
f 236/2/5 228/2/5 235/2/5
f 237/1/5 234/1/5 233/1/5
f 237/1/5 233/1/5 225/1/5
f 238/5/5 230/5/5 234/5/5
f 238/1/5 234/1/5 237/1/5
f 239/4/5 231/4/5 230/4/5
f 239/5/5 230/5/5 238/5/5
f 240/5/5 235/5/5 231/5/5
f 240/4/5 231/4/5 239/4/5
f 241/1/5 236/1/5 235/1/5
f 241/5/5 235/5/5 240/5/5
f 242/1/5 226/1/5 236/1/5
f 242/1/5 236/1/5 241/1/5
f 245/6/5 244/6/5 243/6/5
f 246/6/5 244/6/5 245/6/5
f 247/6/6 248/6/6 249/6/6
f 249/6/6 248/6/6 250/6/6
f 251/5/6 252/5/6 253/5/6
f 253/5/6 252/5/6 254/5/6
