# MagicaVoxel @ Ephtracy

# group
o 

# material
mtllib hydrantModel.mtl
usemtl palette

# normals
vn -1 0 0
vn 1 0 0
vn 0 0 1
vn 0 0 -1
vn 0 -1 0
vn 0 1 0

# texcoords
vt 0.912109 0.5
vt 0.978516 0.5
vt 0.982422 0.5

# verts
v -0.4 0 0.2
v -0.4 0 -0.1
v -0.4 1.7 0.2
v -0.4 1.7 -0.1
v -0.3 0 0.3
v -0.3 0 0.2
v -0.3 0 -0.1
v -0.3 0 -0.2
v -0.3 1.7 0.2
v -0.3 1.7 -0.1
v -0.3 1.8 0.3
v -0.3 1.8 -0.2
v -0.2 0 0.4
v -0.2 0 0.3
v -0.2 0 -0.2
v -0.2 0 -0.3
v -0.2 1.4 0.4
v -0.2 1.4 0.3
v -0.2 1.4 -0.2
v -0.2 1.4 -0.3
v -0.2 1.5 0.5
v -0.2 1.5 0.4
v -0.2 1.5 -0.3
v -0.2 1.5 -0.4
v -0.2 1.6 0.5
v -0.2 1.6 0.4
v -0.2 1.6 -0.3
v -0.2 1.6 -0.4
v -0.2 1.7 0.4
v -0.2 1.7 0.3
v -0.2 1.7 -0.2
v -0.2 1.7 -0.3
v -0.2 1.8 0.2
v -0.2 1.8 -0.1
v -0.2 1.9 0.2
v -0.2 1.9 -0.1
v -0.1 1.4 0.5
v -0.1 1.4 0.4
v -0.1 1.4 -0.3
v -0.1 1.4 -0.4
v -0.1 1.5 0.5
v -0.1 1.5 0.4
v -0.1 1.5 -0.3
v -0.1 1.5 -0.4
v -0.1 1.6 0.5
v -0.1 1.6 0.4
v -0.1 1.6 -0.3
v -0.1 1.6 -0.4
v -0.1 1.7 0.5
v -0.1 1.7 0.4
v -0.1 1.7 -0.3
v -0.1 1.7 -0.4
v 0 1.4 0.5
v 0 1.4 0.4
v 0 1.4 -0.3
v 0 1.4 -0.4
v 0 1.5 0.5
v 0 1.5 0.4
v 0 1.5 -0.3
v 0 1.5 -0.4
v 0 1.6 0.5
v 0 1.6 0.4
v 0 1.6 -0.3
v 0 1.6 -0.4
v 0 1.7 0.5
v 0 1.7 0.4
v 0 1.7 -0.3
v 0 1.7 -0.4
v 0.1 0 0.4
v 0.1 0 0.3
v 0.1 0 -0.2
v 0.1 0 -0.3
v 0.1 1.4 0.4
v 0.1 1.4 0.3
v 0.1 1.4 -0.2
v 0.1 1.4 -0.3
v 0.1 1.5 0.5
v 0.1 1.5 0.4
v 0.1 1.5 -0.3
v 0.1 1.5 -0.4
v 0.1 1.6 0.5
v 0.1 1.6 0.4
v 0.1 1.6 -0.3
v 0.1 1.6 -0.4
v 0.1 1.7 0.4
v 0.1 1.7 0.3
v 0.1 1.7 -0.2
v 0.1 1.7 -0.3
v 0.1 1.8 0.2
v 0.1 1.8 -0.1
v 0.1 1.9 0.2
v 0.1 1.9 -0.1
v 0.2 0 0.3
v 0.2 0 0.2
v 0.2 0 -0.1
v 0.2 0 -0.2
v 0.2 1.7 0.2
v 0.2 1.7 -0.1
v 0.2 1.8 0.3
v 0.2 1.8 -0.2
v 0.3 0 0.2
v 0.3 0 -0.1
v 0.3 1.7 0.2
v 0.3 1.7 -0.1
v -0.2 1.5 0.5
v -0.2 1.6 0.5
v -0.1 1.4 0.5
v -0.1 1.5 0.5
v -0.1 1.6 0.5
v -0.1 1.7 0.5
v 0 1.4 0.5
v 0 1.5 0.5
v 0 1.6 0.5
v 0 1.7 0.5
v 0.1 1.5 0.5
v 0.1 1.6 0.5
v -0.2 0 0.4
v -0.2 1.4 0.4
v -0.2 1.5 0.4
v -0.2 1.6 0.4
v -0.2 1.7 0.4
v -0.1 1.4 0.4
v -0.1 1.5 0.4
v -0.1 1.6 0.4
v -0.1 1.7 0.4
v 0 1.4 0.4
v 0 1.5 0.4
v 0 1.6 0.4
v 0 1.7 0.4
v 0.1 0 0.4
v 0.1 1.4 0.4
v 0.1 1.5 0.4
v 0.1 1.6 0.4
v 0.1 1.7 0.4
v -0.3 0 0.3
v -0.3 1.8 0.3
v -0.2 0 0.3
v -0.2 1.4 0.3
v -0.2 1.7 0.3
v 0.1 0 0.3
v 0.1 1.4 0.3
v 0.1 1.7 0.3
v 0.2 0 0.3
v 0.2 1.8 0.3
v -0.4 0 0.2
v -0.4 1.7 0.2
v -0.3 0 0.2
v -0.3 1.7 0.2
v -0.2 1.8 0.2
v -0.2 1.9 0.2
v 0.1 1.8 0.2
v 0.1 1.9 0.2
v 0.2 0 0.2
v 0.2 1.7 0.2
v 0.3 0 0.2
v 0.3 1.7 0.2
v -0.4 0 -0.1
v -0.4 1.7 -0.1
v -0.3 0 -0.1
v -0.3 1.7 -0.1
v -0.2 1.8 -0.1
v -0.2 1.9 -0.1
v 0.1 1.8 -0.1
v 0.1 1.9 -0.1
v 0.2 0 -0.1
v 0.2 1.7 -0.1
v 0.3 0 -0.1
v 0.3 1.7 -0.1
v -0.3 0 -0.2
v -0.3 1.8 -0.2
v -0.2 0 -0.2
v -0.2 1.4 -0.2
v -0.2 1.7 -0.2
v 0.1 0 -0.2
v 0.1 1.4 -0.2
v 0.1 1.7 -0.2
v 0.2 0 -0.2
v 0.2 1.8 -0.2
v -0.2 0 -0.3
v -0.2 1.4 -0.3
v -0.2 1.5 -0.3
v -0.2 1.6 -0.3
v -0.2 1.7 -0.3
v -0.1 1.4 -0.3
v -0.1 1.5 -0.3
v -0.1 1.6 -0.3
v -0.1 1.7 -0.3
v 0 1.4 -0.3
v 0 1.5 -0.3
v 0 1.6 -0.3
v 0 1.7 -0.3
v 0.1 0 -0.3
v 0.1 1.4 -0.3
v 0.1 1.5 -0.3
v 0.1 1.6 -0.3
v 0.1 1.7 -0.3
v -0.2 1.5 -0.4
v -0.2 1.6 -0.4
v -0.1 1.4 -0.4
v -0.1 1.5 -0.4
v -0.1 1.6 -0.4
v -0.1 1.7 -0.4
v 0 1.4 -0.4
v 0 1.5 -0.4
v 0 1.6 -0.4
v 0 1.7 -0.4
v 0.1 1.5 -0.4
v 0.1 1.6 -0.4
v -0.2 0 0.4
v 0.1 0 0.4
v -0.3 0 0.3
v -0.2 0 0.3
v 0.1 0 0.3
v 0.2 0 0.3
v -0.4 0 0.2
v -0.3 0 0.2
v 0.2 0 0.2
v 0.3 0 0.2
v -0.4 0 -0.1
v -0.3 0 -0.1
v 0.2 0 -0.1
v 0.3 0 -0.1
v -0.3 0 -0.2
v -0.2 0 -0.2
v 0.1 0 -0.2
v 0.2 0 -0.2
v -0.2 0 -0.3
v 0.1 0 -0.3
v -0.1 1.4 0.5
v 0 1.4 0.5
v -0.1 1.4 0.4
v 0 1.4 0.4
v -0.1 1.4 -0.3
v 0 1.4 -0.3
v -0.1 1.4 -0.4
v 0 1.4 -0.4
v -0.2 1.5 0.5
v -0.1 1.5 0.5
v 0 1.5 0.5
v 0.1 1.5 0.5
v -0.2 1.5 0.4
v -0.1 1.5 0.4
v 0 1.5 0.4
v 0.1 1.5 0.4
v -0.2 1.5 -0.3
v -0.1 1.5 -0.3
v 0 1.5 -0.3
v 0.1 1.5 -0.3
v -0.2 1.5 -0.4
v -0.1 1.5 -0.4
v 0 1.5 -0.4
v 0.1 1.5 -0.4
v -0.2 1.6 0.5
v -0.1 1.6 0.5
v 0 1.6 0.5
v 0.1 1.6 0.5
v -0.2 1.6 0.4
v -0.1 1.6 0.4
v 0 1.6 0.4
v 0.1 1.6 0.4
v -0.2 1.6 -0.3
v -0.1 1.6 -0.3
v 0 1.6 -0.3
v 0.1 1.6 -0.3
v -0.2 1.6 -0.4
v -0.1 1.6 -0.4
v 0 1.6 -0.4
v 0.1 1.6 -0.4
v -0.1 1.7 0.5
v 0 1.7 0.5
v -0.2 1.7 0.4
v -0.1 1.7 0.4
v 0 1.7 0.4
v 0.1 1.7 0.4
v -0.2 1.7 0.3
v 0.1 1.7 0.3
v -0.4 1.7 0.2
v -0.3 1.7 0.2
v 0.2 1.7 0.2
v 0.3 1.7 0.2
v -0.4 1.7 -0.1
v -0.3 1.7 -0.1
v 0.2 1.7 -0.1
v 0.3 1.7 -0.1
v -0.2 1.7 -0.2
v 0.1 1.7 -0.2
v -0.2 1.7 -0.3
v -0.1 1.7 -0.3
v 0 1.7 -0.3
v 0.1 1.7 -0.3
v -0.1 1.7 -0.4
v 0 1.7 -0.4
v -0.3 1.8 0.3
v 0.2 1.8 0.3
v -0.2 1.8 0.2
v 0.1 1.8 0.2
v -0.2 1.8 -0.1
v 0.1 1.8 -0.1
v -0.3 1.8 -0.2
v 0.2 1.8 -0.2
v -0.2 1.9 0.2
v 0.1 1.9 0.2
v -0.2 1.9 -0.1
v 0.1 1.9 -0.1

# faces
f 3/3/1 2/3/1 1/3/1
f 4/3/1 2/3/1 3/3/1
f 9/3/1 6/3/1 5/3/1
f 10/3/1 8/3/1 7/3/1
f 11/3/1 9/3/1 5/3/1
f 11/3/1 10/3/1 9/3/1
f 12/3/1 8/3/1 10/3/1
f 12/3/1 10/3/1 11/3/1
f 17/3/1 14/3/1 13/3/1
f 18/3/1 14/3/1 17/3/1
f 19/3/1 16/3/1 15/3/1
f 20/3/1 16/3/1 19/3/1
f 22/1/1 18/1/1 17/1/1
f 23/1/1 20/1/1 19/1/1
f 25/2/1 22/2/1 21/2/1
f 26/1/1 18/1/1 22/1/1
f 26/2/1 22/2/1 25/2/1
f 27/1/1 23/1/1 19/1/1
f 27/2/1 24/2/1 23/2/1
f 28/2/1 24/2/1 27/2/1
f 29/1/1 18/1/1 26/1/1
f 30/1/1 18/1/1 29/1/1
f 31/1/1 27/1/1 19/1/1
f 32/1/1 27/1/1 31/1/1
f 35/3/1 34/3/1 33/3/1
f 36/3/1 34/3/1 35/3/1
f 41/2/1 38/2/1 37/2/1
f 42/2/1 38/2/1 41/2/1
f 43/2/1 40/2/1 39/2/1
f 44/2/1 40/2/1 43/2/1
f 49/2/1 46/2/1 45/2/1
f 50/2/1 46/2/1 49/2/1
f 51/2/1 48/2/1 47/2/1
f 52/2/1 48/2/1 51/2/1
f 53/2/2 54/2/2 57/2/2
f 57/2/2 54/2/2 58/2/2
f 55/2/2 56/2/2 59/2/2
f 59/2/2 56/2/2 60/2/2
f 61/2/2 62/2/2 65/2/2
f 65/2/2 62/2/2 66/2/2
f 63/2/2 64/2/2 67/2/2
f 67/2/2 64/2/2 68/2/2
f 69/3/2 70/3/2 73/3/2
f 73/3/2 70/3/2 74/3/2
f 71/3/2 72/3/2 75/3/2
f 75/3/2 72/3/2 76/3/2
f 73/1/2 74/1/2 78/1/2
f 75/1/2 76/1/2 79/1/2
f 77/2/2 78/2/2 81/2/2
f 78/1/2 74/1/2 82/1/2
f 81/2/2 78/2/2 82/2/2
f 75/1/2 79/1/2 83/1/2
f 79/2/2 80/2/2 83/2/2
f 83/2/2 80/2/2 84/2/2
f 82/1/2 74/1/2 85/1/2
f 85/1/2 74/1/2 86/1/2
f 75/1/2 83/1/2 87/1/2
f 87/1/2 83/1/2 88/1/2
f 89/3/2 90/3/2 91/3/2
f 91/3/2 90/3/2 92/3/2
f 93/3/2 94/3/2 97/3/2
f 95/3/2 96/3/2 98/3/2
f 93/3/2 97/3/2 99/3/2
f 97/3/2 98/3/2 99/3/2
f 98/3/2 96/3/2 100/3/2
f 99/3/2 98/3/2 100/3/2
f 101/3/2 102/3/2 103/3/2
f 103/3/2 102/3/2 104/3/2
f 108/2/3 106/2/3 105/2/3
f 109/2/3 106/2/3 108/2/3
f 111/2/3 108/2/3 107/2/3
f 111/2/3 110/2/3 109/2/3
f 111/2/3 109/2/3 108/2/3
f 112/2/3 110/2/3 111/2/3
f 113/2/3 110/2/3 112/2/3
f 114/2/3 110/2/3 113/2/3
f 115/2/3 113/2/3 112/2/3
f 116/2/3 113/2/3 115/2/3
f 122/3/3 118/3/3 117/3/3
f 122/1/3 119/1/3 118/1/3
f 123/1/3 119/1/3 122/1/3
f 124/1/3 121/1/3 120/1/3
f 125/1/3 121/1/3 124/1/3
f 126/3/3 122/3/3 117/3/3
f 130/3/3 126/3/3 117/3/3
f 131/1/3 127/1/3 126/1/3
f 131/3/3 126/3/3 130/3/3
f 132/1/3 127/1/3 131/1/3
f 133/1/3 129/1/3 128/1/3
f 134/1/3 129/1/3 133/1/3
f 137/3/3 136/3/3 135/3/3
f 138/3/3 136/3/3 137/3/3
f 139/3/3 136/3/3 138/3/3
f 142/3/3 136/3/3 139/3/3
f 143/3/3 141/3/3 140/3/3
f 143/3/3 142/3/3 141/3/3
f 144/3/3 136/3/3 142/3/3
f 144/3/3 142/3/3 143/3/3
f 147/3/3 146/3/3 145/3/3
f 148/3/3 146/3/3 147/3/3
f 151/3/3 150/3/3 149/3/3
f 152/3/3 150/3/3 151/3/3
f 155/3/3 154/3/3 153/3/3
f 156/3/3 154/3/3 155/3/3
f 157/3/4 158/3/4 159/3/4
f 159/3/4 158/3/4 160/3/4
f 161/3/4 162/3/4 163/3/4
f 163/3/4 162/3/4 164/3/4
f 165/3/4 166/3/4 167/3/4
f 167/3/4 166/3/4 168/3/4
f 169/3/4 170/3/4 171/3/4
f 171/3/4 170/3/4 172/3/4
f 172/3/4 170/3/4 173/3/4
f 173/3/4 170/3/4 176/3/4
f 174/3/4 175/3/4 177/3/4
f 175/3/4 176/3/4 177/3/4
f 176/3/4 170/3/4 178/3/4
f 177/3/4 176/3/4 178/3/4
f 179/3/4 180/3/4 184/3/4
f 180/1/4 181/1/4 184/1/4
f 184/1/4 181/1/4 185/1/4
f 182/1/4 183/1/4 186/1/4
f 186/1/4 183/1/4 187/1/4
f 179/3/4 184/3/4 188/3/4
f 179/3/4 188/3/4 192/3/4
f 188/1/4 189/1/4 193/1/4
f 192/3/4 188/3/4 193/3/4
f 193/1/4 189/1/4 194/1/4
f 190/1/4 191/1/4 195/1/4
f 195/1/4 191/1/4 196/1/4
f 197/2/4 198/2/4 200/2/4
f 200/2/4 198/2/4 201/2/4
f 199/2/4 200/2/4 203/2/4
f 201/2/4 202/2/4 203/2/4
f 200/2/4 201/2/4 203/2/4
f 203/2/4 202/2/4 204/2/4
f 204/2/4 202/2/4 205/2/4
f 205/2/4 202/2/4 206/2/4
f 204/2/4 205/2/4 207/2/4
f 207/2/4 205/2/4 208/2/4
f 212/3/5 210/3/5 209/3/5
f 213/3/5 210/3/5 212/3/5
f 216/3/5 212/3/5 211/3/5
f 216/3/5 214/3/5 213/3/5
f 216/3/5 213/3/5 212/3/5
f 217/3/5 214/3/5 216/3/5
f 219/3/5 216/3/5 215/3/5
f 219/3/5 218/3/5 217/3/5
f 219/3/5 217/3/5 216/3/5
f 220/3/5 218/3/5 219/3/5
f 221/3/5 218/3/5 220/3/5
f 222/3/5 218/3/5 221/3/5
f 223/3/5 221/3/5 220/3/5
f 224/3/5 221/3/5 223/3/5
f 225/3/5 221/3/5 224/3/5
f 226/3/5 221/3/5 225/3/5
f 227/3/5 225/3/5 224/3/5
f 228/3/5 225/3/5 227/3/5
f 231/2/5 230/2/5 229/2/5
f 232/2/5 230/2/5 231/2/5
f 235/2/5 234/2/5 233/2/5
f 236/2/5 234/2/5 235/2/5
f 241/2/5 238/2/5 237/2/5
f 242/2/5 238/2/5 241/2/5
f 243/2/5 240/2/5 239/2/5
f 244/2/5 240/2/5 243/2/5
f 249/2/5 246/2/5 245/2/5
f 250/2/5 246/2/5 249/2/5
f 251/2/5 248/2/5 247/2/5
f 252/2/5 248/2/5 251/2/5
f 253/2/6 254/2/6 257/2/6
f 257/2/6 254/2/6 258/2/6
f 255/2/6 256/2/6 259/2/6
f 259/2/6 256/2/6 260/2/6
f 261/2/6 262/2/6 265/2/6
f 265/2/6 262/2/6 266/2/6
f 263/2/6 264/2/6 267/2/6
f 267/2/6 264/2/6 268/2/6
f 269/2/6 270/2/6 272/2/6
f 272/2/6 270/2/6 273/2/6
f 271/1/6 272/1/6 275/1/6
f 273/1/6 274/1/6 275/1/6
f 272/1/6 273/1/6 275/1/6
f 275/1/6 274/1/6 276/1/6
f 277/3/6 278/3/6 281/3/6
f 281/3/6 278/3/6 282/3/6
f 279/3/6 280/3/6 283/3/6
f 283/3/6 280/3/6 284/3/6
f 285/1/6 286/1/6 287/1/6
f 287/1/6 286/1/6 288/1/6
f 288/1/6 286/1/6 289/1/6
f 289/1/6 286/1/6 290/1/6
f 288/2/6 289/2/6 291/2/6
f 291/2/6 289/2/6 292/2/6
f 293/3/6 294/3/6 295/3/6
f 295/3/6 294/3/6 296/3/6
f 293/3/6 295/3/6 297/3/6
f 296/3/6 294/3/6 298/3/6
f 293/3/6 297/3/6 299/3/6
f 297/3/6 298/3/6 299/3/6
f 298/3/6 294/3/6 300/3/6
f 299/3/6 298/3/6 300/3/6
f 301/3/6 302/3/6 303/3/6
f 303/3/6 302/3/6 304/3/6
