# MagicaVoxel @ Ephtracy

# group
o 

# material
mtllib yellowBuildingModel.mtl
usemtl palette

# normals
vn -1 0 0
vn 1 0 0
vn 0 0 1
vn 0 0 -1
vn 0 -1 0
vn 0 1 0

# texcoords
vt 0.951172 0.5
vt 0.955078 0.5
vt 0.966797 0.5
vt 0.978516 0.5
vt 0.982422 0.5
vt 0.990234 0.5

# verts
v -1 0 1.6
v -1 0 -0.8
v -1 2.2 1.2
v -1 2.2 0.7
v -1 2.2 -0.1
v -1 2.2 -0.6
v -1 2.3 1.1
v -1 2.3 1
v -1 2.3 0.9
v -1 2.3 0.8
v -1 2.3 -0.2
v -1 2.3 -0.3
v -1 2.3 -0.4
v -1 2.3 -0.5
v -1 2.4 1.1
v -1 2.4 1
v -1 2.4 0.9
v -1 2.4 0.8
v -1 2.4 -0.2
v -1 2.4 -0.3
v -1 2.4 -0.4
v -1 2.4 -0.5
v -1 2.5 1.1
v -1 2.5 1
v -1 2.5 0.9
v -1 2.5 0.8
v -1 2.5 -0.2
v -1 2.5 -0.3
v -1 2.5 -0.4
v -1 2.5 -0.5
v -1 2.6 1.1
v -1 2.6 1
v -1 2.6 0.9
v -1 2.6 0.8
v -1 2.6 -0.2
v -1 2.6 -0.3
v -1 2.6 -0.4
v -1 2.6 -0.5
v -1 2.7 1.1
v -1 2.7 1
v -1 2.7 0.9
v -1 2.7 0.8
v -1 2.7 -0.2
v -1 2.7 -0.3
v -1 2.7 -0.4
v -1 2.7 -0.5
v -1 2.8 1.1
v -1 2.8 1
v -1 2.8 0.9
v -1 2.8 0.8
v -1 2.8 -0.2
v -1 2.8 -0.3
v -1 2.8 -0.4
v -1 2.8 -0.5
v -1 2.9 1.2
v -1 2.9 0.7
v -1 2.9 -0.1
v -1 2.9 -0.6
v -1 3.2 1.6
v -1 3.2 -0.8
v -1 3.6 1.6
v -1 3.6 -0.8
v -1 3.8 1.6
v -1 3.8 -0.8
v -0.2 0.4 -0.8
v -0.2 0.4 -1
v -0.2 0.6 -0.8
v -0.2 0.6 -1
v 1.19209e-07 0.4 -0.8
v 1.19209e-07 0.4 -1
v 1.19209e-07 0.6 -0.8
v 1.19209e-07 0.6 -1
v 1.4 0 1.6
v 1.4 0 -0.8
v 1.4 2.2 1.2
v 1.4 2.2 0.7
v 1.4 2.2 -0.1
v 1.4 2.2 -0.6
v 1.4 2.3 1.1
v 1.4 2.3 1
v 1.4 2.3 0.9
v 1.4 2.3 0.8
v 1.4 2.3 -0.2
v 1.4 2.3 -0.3
v 1.4 2.3 -0.4
v 1.4 2.3 -0.5
v 1.4 2.4 1.1
v 1.4 2.4 1
v 1.4 2.4 0.9
v 1.4 2.4 0.8
v 1.4 2.4 -0.2
v 1.4 2.4 -0.3
v 1.4 2.4 -0.4
v 1.4 2.4 -0.5
v 1.4 2.5 1.1
v 1.4 2.5 1
v 1.4 2.5 0.9
v 1.4 2.5 0.8
v 1.4 2.5 -0.2
v 1.4 2.5 -0.3
v 1.4 2.5 -0.4
v 1.4 2.5 -0.5
v 1.4 2.6 1.1
v 1.4 2.6 1
v 1.4 2.6 0.9
v 1.4 2.6 0.8
v 1.4 2.6 -0.2
v 1.4 2.6 -0.3
v 1.4 2.6 -0.4
v 1.4 2.6 -0.5
v 1.4 2.7 1.1
v 1.4 2.7 1
v 1.4 2.7 0.9
v 1.4 2.7 0.8
v 1.4 2.7 -0.2
v 1.4 2.7 -0.3
v 1.4 2.7 -0.4
v 1.4 2.7 -0.5
v 1.4 2.8 1.1
v 1.4 2.8 1
v 1.4 2.8 0.9
v 1.4 2.8 0.8
v 1.4 2.8 -0.2
v 1.4 2.8 -0.3
v 1.4 2.8 -0.4
v 1.4 2.8 -0.5
v 1.4 2.9 1.2
v 1.4 2.9 0.7
v 1.4 2.9 -0.1
v 1.4 2.9 -0.6
v 1.4 3.2 1.6
v 1.4 3.2 -0.8
v 1.4 3.6 1.6
v 1.4 3.6 -0.8
v 1.4 3.8 1.6
v 1.4 3.8 -0.8
v -1 0 1.6
v -1 3.2 1.6
v -1 3.6 1.6
v -1 3.8 1.6
v 1.4 0 1.6
v 1.4 3.2 1.6
v 1.4 3.6 1.6
v 1.4 3.8 1.6
v -1 0 -0.8
v -1 3.2 -0.8
v -1 3.6 -0.8
v -1 3.8 -0.8
v -0.7 2.2 -0.8
v -0.7 2.9 -0.8
v -0.6 2.3 -0.8
v -0.6 2.4 -0.8
v -0.6 2.5 -0.8
v -0.6 2.6 -0.8
v -0.6 2.7 -0.8
v -0.6 2.8 -0.8
v -0.5 2.3 -0.8
v -0.5 2.4 -0.8
v -0.5 2.5 -0.8
v -0.5 2.6 -0.8
v -0.5 2.7 -0.8
v -0.5 2.8 -0.8
v -0.4 0 -0.8
v -0.4 1 -0.8
v -0.4 2.3 -0.8
v -0.4 2.4 -0.8
v -0.4 2.5 -0.8
v -0.4 2.6 -0.8
v -0.4 2.7 -0.8
v -0.4 2.8 -0.8
v -0.3 2.3 -0.8
v -0.3 2.4 -0.8
v -0.3 2.5 -0.8
v -0.3 2.6 -0.8
v -0.3 2.7 -0.8
v -0.3 2.8 -0.8
v -0.2 0 -0.8
v -0.2 0.4 -0.8
v -0.2 0.6 -0.8
v -0.2 0.8 -0.8
v -0.2 2.2 -0.8
v -0.2 2.9 -0.8
v 1.19209e-07 0.4 -0.8
v 1.19209e-07 0.6 -0.8
v 0.4 0 -0.8
v 0.4 0.8 -0.8
v 0.6 0 -0.8
v 0.6 1 -0.8
v 0.6 2.2 -0.8
v 0.6 2.9 -0.8
v 0.7 2.3 -0.8
v 0.7 2.4 -0.8
v 0.7 2.5 -0.8
v 0.7 2.6 -0.8
v 0.7 2.7 -0.8
v 0.7 2.8 -0.8
v 0.8 2.3 -0.8
v 0.8 2.4 -0.8
v 0.8 2.5 -0.8
v 0.8 2.6 -0.8
v 0.8 2.7 -0.8
v 0.8 2.8 -0.8
v 0.9 2.3 -0.8
v 0.9 2.4 -0.8
v 0.9 2.5 -0.8
v 0.9 2.6 -0.8
v 0.9 2.7 -0.8
v 0.9 2.8 -0.8
v 1 2.3 -0.8
v 1 2.4 -0.8
v 1 2.5 -0.8
v 1 2.6 -0.8
v 1 2.7 -0.8
v 1 2.8 -0.8
v 1.1 2.2 -0.8
v 1.1 2.9 -0.8
v 1.4 0 -0.8
v 1.4 3.2 -0.8
v 1.4 3.6 -0.8
v 1.4 3.8 -0.8
v -0.2 0.4 -1
v -0.2 0.6 -1
v 1.19209e-07 0.4 -1
v 1.19209e-07 0.6 -1
v -1 0 1.6
v 1.4 0 1.6
v -0.4 0 -0.6
v -0.2 0 -0.6
v 0.4 0 -0.6
v 0.6 0 -0.6
v -1 0 -0.8
v -0.4 0 -0.8
v -0.2 0 -0.8
v 0.4 0 -0.8
v 0.6 0 -0.8
v 1.4 0 -0.8
v -0.2 0.4 -0.8
v 1.19209e-07 0.4 -0.8
v -0.2 0.4 -1
v 1.19209e-07 0.4 -1
v -0.2 0.6 -0.8
v 1.19209e-07 0.6 -0.8
v -0.2 0.6 -1
v 1.19209e-07 0.6 -1
v -1 3.8 1.6
v 1.4 3.8 1.6
v -1 3.8 -0.8
v 1.4 3.8 -0.8

# faces
f 3/1/1 2/1/1 1/1/1
f 4/1/1 2/1/1 3/1/1
f 5/1/1 2/1/1 4/1/1
f 6/1/1 2/1/1 5/1/1
f 7/4/1 4/4/1 3/4/1
f 8/4/1 4/4/1 7/4/1
f 9/4/1 4/4/1 8/4/1
f 10/4/1 4/4/1 9/4/1
f 11/4/1 6/4/1 5/4/1
f 12/4/1 6/4/1 11/4/1
f 13/4/1 6/4/1 12/4/1
f 14/4/1 6/4/1 13/4/1
f 15/4/1 7/4/1 3/4/1
f 15/6/1 8/6/1 7/6/1
f 16/4/1 9/4/1 8/4/1
f 16/6/1 8/6/1 15/6/1
f 17/6/1 10/6/1 9/6/1
f 17/4/1 9/4/1 16/4/1
f 18/4/1 4/4/1 10/4/1
f 18/6/1 10/6/1 17/6/1
f 19/4/1 11/4/1 5/4/1
f 19/6/1 12/6/1 11/6/1
f 20/4/1 13/4/1 12/4/1
f 20/6/1 12/6/1 19/6/1
f 21/6/1 14/6/1 13/6/1
f 21/4/1 13/4/1 20/4/1
f 22/4/1 6/4/1 14/4/1
f 22/6/1 14/6/1 21/6/1
f 23/4/1 17/4/1 16/4/1
f 23/4/1 15/4/1 3/4/1
f 23/4/1 16/4/1 15/4/1
f 23/4/1 18/4/1 17/4/1
f 24/4/1 18/4/1 23/4/1
f 25/4/1 18/4/1 24/4/1
f 26/4/1 4/4/1 18/4/1
f 26/4/1 18/4/1 25/4/1
f 27/4/1 21/4/1 20/4/1
f 27/4/1 20/4/1 19/4/1
f 27/4/1 22/4/1 21/4/1
f 27/4/1 19/4/1 5/4/1
f 28/4/1 22/4/1 27/4/1
f 29/4/1 22/4/1 28/4/1
f 30/4/1 6/4/1 22/4/1
f 30/4/1 22/4/1 29/4/1
f 31/6/1 24/6/1 23/6/1
f 31/4/1 23/4/1 3/4/1
f 32/4/1 25/4/1 24/4/1
f 32/6/1 24/6/1 31/6/1
f 33/6/1 26/6/1 25/6/1
f 33/4/1 25/4/1 32/4/1
f 34/4/1 4/4/1 26/4/1
f 34/6/1 26/6/1 33/6/1
f 35/4/1 27/4/1 5/4/1
f 35/6/1 28/6/1 27/6/1
f 36/4/1 29/4/1 28/4/1
f 36/6/1 28/6/1 35/6/1
f 37/6/1 30/6/1 29/6/1
f 37/4/1 29/4/1 36/4/1
f 38/4/1 6/4/1 30/4/1
f 38/6/1 30/6/1 37/6/1
f 39/4/1 33/4/1 32/4/1
f 39/4/1 32/4/1 31/4/1
f 39/4/1 31/4/1 3/4/1
f 39/4/1 34/4/1 33/4/1
f 40/4/1 34/4/1 39/4/1
f 41/4/1 34/4/1 40/4/1
f 42/4/1 4/4/1 34/4/1
f 42/4/1 34/4/1 41/4/1
f 43/4/1 35/4/1 5/4/1
f 43/4/1 38/4/1 37/4/1
f 43/4/1 37/4/1 36/4/1
f 43/4/1 36/4/1 35/4/1
f 44/4/1 38/4/1 43/4/1
f 45/4/1 38/4/1 44/4/1
f 46/4/1 6/4/1 38/4/1
f 46/4/1 38/4/1 45/4/1
f 47/6/1 40/6/1 39/6/1
f 47/4/1 39/4/1 3/4/1
f 48/4/1 41/4/1 40/4/1
f 48/6/1 40/6/1 47/6/1
f 49/6/1 42/6/1 41/6/1
f 49/4/1 41/4/1 48/4/1
f 50/4/1 4/4/1 42/4/1
f 50/6/1 42/6/1 49/6/1
f 51/4/1 43/4/1 5/4/1
f 51/6/1 44/6/1 43/6/1
f 52/4/1 45/4/1 44/4/1
f 52/6/1 44/6/1 51/6/1
f 53/6/1 46/6/1 45/6/1
f 53/4/1 45/4/1 52/4/1
f 54/4/1 6/4/1 46/4/1
f 54/6/1 46/6/1 53/6/1
f 55/1/1 3/1/1 1/1/1
f 55/4/1 49/4/1 48/4/1
f 55/4/1 48/4/1 47/4/1
f 55/4/1 50/4/1 49/4/1
f 55/4/1 47/4/1 3/4/1
f 56/1/1 5/1/1 4/1/1
f 56/4/1 50/4/1 55/4/1
f 56/4/1 4/4/1 50/4/1
f 57/4/1 54/4/1 53/4/1
f 57/1/1 5/1/1 56/1/1
f 57/4/1 51/4/1 5/4/1
f 57/4/1 53/4/1 52/4/1
f 57/4/1 52/4/1 51/4/1
f 58/4/1 6/4/1 54/4/1
f 58/4/1 54/4/1 57/4/1
f 58/1/1 2/1/1 6/1/1
f 59/1/1 57/1/1 56/1/1
f 59/1/1 56/1/1 55/1/1
f 59/1/1 58/1/1 57/1/1
f 59/1/1 55/1/1 1/1/1
f 60/1/1 2/1/1 58/1/1
f 60/1/1 58/1/1 59/1/1
f 61/2/1 60/2/1 59/2/1
f 62/2/1 60/2/1 61/2/1
f 63/4/1 62/4/1 61/4/1
f 64/4/1 62/4/1 63/4/1
f 67/5/1 66/5/1 65/5/1
f 68/5/1 66/5/1 67/5/1
f 69/5/2 70/5/2 71/5/2
f 71/5/2 70/5/2 72/5/2
f 73/1/2 74/1/2 75/1/2
f 75/1/2 74/1/2 76/1/2
f 76/1/2 74/1/2 77/1/2
f 77/1/2 74/1/2 78/1/2
f 75/4/2 76/4/2 79/4/2
f 79/4/2 76/4/2 80/4/2
f 80/4/2 76/4/2 81/4/2
f 81/4/2 76/4/2 82/4/2
f 77/4/2 78/4/2 83/4/2
f 83/4/2 78/4/2 84/4/2
f 84/4/2 78/4/2 85/4/2
f 85/4/2 78/4/2 86/4/2
f 75/4/2 79/4/2 87/4/2
f 79/6/2 80/6/2 87/6/2
f 80/4/2 81/4/2 88/4/2
f 87/6/2 80/6/2 88/6/2
f 81/6/2 82/6/2 89/6/2
f 88/4/2 81/4/2 89/4/2
f 82/4/2 76/4/2 90/4/2
f 89/6/2 82/6/2 90/6/2
f 77/4/2 83/4/2 91/4/2
f 83/6/2 84/6/2 91/6/2
f 84/4/2 85/4/2 92/4/2
f 91/6/2 84/6/2 92/6/2
f 85/6/2 86/6/2 93/6/2
f 92/4/2 85/4/2 93/4/2
f 86/4/2 78/4/2 94/4/2
f 93/6/2 86/6/2 94/6/2
f 88/4/2 89/4/2 95/4/2
f 75/4/2 87/4/2 95/4/2
f 87/4/2 88/4/2 95/4/2
f 89/4/2 90/4/2 95/4/2
f 95/4/2 90/4/2 96/4/2
f 96/4/2 90/4/2 97/4/2
f 90/4/2 76/4/2 98/4/2
f 97/4/2 90/4/2 98/4/2
f 92/4/2 93/4/2 99/4/2
f 91/4/2 92/4/2 99/4/2
f 93/4/2 94/4/2 99/4/2
f 77/4/2 91/4/2 99/4/2
f 99/4/2 94/4/2 100/4/2
f 100/4/2 94/4/2 101/4/2
f 94/4/2 78/4/2 102/4/2
f 101/4/2 94/4/2 102/4/2
f 95/6/2 96/6/2 103/6/2
f 75/4/2 95/4/2 103/4/2
f 96/4/2 97/4/2 104/4/2
f 103/6/2 96/6/2 104/6/2
f 97/6/2 98/6/2 105/6/2
f 104/4/2 97/4/2 105/4/2
f 98/4/2 76/4/2 106/4/2
f 105/6/2 98/6/2 106/6/2
f 77/4/2 99/4/2 107/4/2
f 99/6/2 100/6/2 107/6/2
f 100/4/2 101/4/2 108/4/2
f 107/6/2 100/6/2 108/6/2
f 101/6/2 102/6/2 109/6/2
f 108/4/2 101/4/2 109/4/2
f 102/4/2 78/4/2 110/4/2
f 109/6/2 102/6/2 110/6/2
f 104/4/2 105/4/2 111/4/2
f 103/4/2 104/4/2 111/4/2
f 75/4/2 103/4/2 111/4/2
f 105/4/2 106/4/2 111/4/2
f 111/4/2 106/4/2 112/4/2
f 112/4/2 106/4/2 113/4/2
f 106/4/2 76/4/2 114/4/2
f 113/4/2 106/4/2 114/4/2
f 77/4/2 107/4/2 115/4/2
f 109/4/2 110/4/2 115/4/2
f 108/4/2 109/4/2 115/4/2
f 107/4/2 108/4/2 115/4/2
f 115/4/2 110/4/2 116/4/2
f 116/4/2 110/4/2 117/4/2
f 110/4/2 78/4/2 118/4/2
f 117/4/2 110/4/2 118/4/2
f 111/6/2 112/6/2 119/6/2
f 75/4/2 111/4/2 119/4/2
f 112/4/2 113/4/2 120/4/2
f 119/6/2 112/6/2 120/6/2
f 113/6/2 114/6/2 121/6/2
f 120/4/2 113/4/2 121/4/2
f 114/4/2 76/4/2 122/4/2
f 121/6/2 114/6/2 122/6/2
f 77/4/2 115/4/2 123/4/2
f 115/6/2 116/6/2 123/6/2
f 116/4/2 117/4/2 124/4/2
f 123/6/2 116/6/2 124/6/2
f 117/6/2 118/6/2 125/6/2
f 124/4/2 117/4/2 125/4/2
f 118/4/2 78/4/2 126/4/2
f 125/6/2 118/6/2 126/6/2
f 73/1/2 75/1/2 127/1/2
f 120/4/2 121/4/2 127/4/2
f 119/4/2 120/4/2 127/4/2
f 121/4/2 122/4/2 127/4/2
f 75/4/2 119/4/2 127/4/2
f 76/1/2 77/1/2 128/1/2
f 127/4/2 122/4/2 128/4/2
f 122/4/2 76/4/2 128/4/2
f 125/4/2 126/4/2 129/4/2
f 128/1/2 77/1/2 129/1/2
f 77/4/2 123/4/2 129/4/2
f 124/4/2 125/4/2 129/4/2
f 123/4/2 124/4/2 129/4/2
f 126/4/2 78/4/2 130/4/2
f 129/4/2 126/4/2 130/4/2
f 78/1/2 74/1/2 130/1/2
f 128/1/2 129/1/2 131/1/2
f 127/1/2 128/1/2 131/1/2
f 129/1/2 130/1/2 131/1/2
f 73/1/2 127/1/2 131/1/2
f 130/1/2 74/1/2 132/1/2
f 131/1/2 130/1/2 132/1/2
f 131/2/2 132/2/2 133/2/2
f 133/2/2 132/2/2 134/2/2
f 133/4/2 134/4/2 135/4/2
f 135/4/2 134/4/2 136/4/2
f 141/1/3 138/1/3 137/1/3
f 142/2/3 139/2/3 138/2/3
f 142/1/3 138/1/3 141/1/3
f 143/4/3 140/4/3 139/4/3
f 143/2/3 139/2/3 142/2/3
f 144/4/3 140/4/3 143/4/3
f 145/1/4 146/1/4 149/1/4
f 149/1/4 146/1/4 150/1/4
f 149/4/4 150/4/4 151/4/4
f 151/4/4 150/4/4 152/4/4
f 152/4/4 150/4/4 153/4/4
f 153/4/4 150/4/4 154/4/4
f 154/4/4 150/4/4 155/4/4
f 155/4/4 150/4/4 156/4/4
f 149/4/4 151/4/4 157/4/4
f 151/6/4 152/6/4 157/6/4
f 152/4/4 153/4/4 158/4/4
f 157/6/4 152/6/4 158/6/4
f 153/6/4 154/6/4 159/6/4
f 158/4/4 153/4/4 159/4/4
f 154/4/4 155/4/4 160/4/4
f 159/6/4 154/6/4 160/6/4
f 155/6/4 156/6/4 161/6/4
f 160/4/4 155/4/4 161/4/4
f 156/4/4 150/4/4 162/4/4
f 161/6/4 156/6/4 162/6/4
f 145/1/4 149/1/4 163/1/4
f 163/1/4 149/1/4 164/1/4
f 160/4/4 161/4/4 165/4/4
f 159/4/4 160/4/4 165/4/4
f 149/4/4 157/4/4 165/4/4
f 157/4/4 158/4/4 165/4/4
f 161/4/4 162/4/4 165/4/4
f 158/4/4 159/4/4 165/4/4
f 165/4/4 162/4/4 166/4/4
f 166/4/4 162/4/4 167/4/4
f 167/4/4 162/4/4 168/4/4
f 168/4/4 162/4/4 169/4/4
f 162/4/4 150/4/4 170/4/4
f 169/4/4 162/4/4 170/4/4
f 149/4/4 165/4/4 171/4/4
f 165/6/4 166/6/4 171/6/4
f 166/4/4 167/4/4 172/4/4
f 171/6/4 166/6/4 172/6/4
f 167/6/4 168/6/4 173/6/4
f 172/4/4 167/4/4 173/4/4
f 168/4/4 169/4/4 174/4/4
f 173/6/4 168/6/4 174/6/4
f 169/6/4 170/6/4 175/6/4
f 174/4/4 169/4/4 175/4/4
f 170/4/4 150/4/4 176/4/4
f 175/6/4 170/6/4 176/6/4
f 163/4/4 164/4/4 177/4/4
f 177/4/4 164/4/4 178/4/4
f 178/4/4 164/4/4 179/4/4
f 179/4/4 164/4/4 180/4/4
f 172/4/4 173/4/4 181/4/4
f 164/1/4 149/1/4 181/1/4
f 174/4/4 175/4/4 181/4/4
f 173/4/4 174/4/4 181/4/4
f 149/4/4 171/4/4 181/4/4
f 171/4/4 172/4/4 181/4/4
f 175/4/4 176/4/4 181/4/4
f 150/1/4 146/1/4 182/1/4
f 181/4/4 176/4/4 182/4/4
f 176/4/4 150/4/4 182/4/4
f 177/3/4 178/3/4 183/3/4
f 179/3/4 180/3/4 184/3/4
f 177/3/4 183/3/4 185/3/4
f 183/3/4 184/3/4 185/3/4
f 180/4/4 164/4/4 186/4/4
f 185/3/4 184/3/4 186/3/4
f 184/3/4 180/3/4 186/3/4
f 185/4/4 186/4/4 187/4/4
f 164/1/4 181/1/4 188/1/4
f 187/4/4 186/4/4 188/4/4
f 181/1/4 182/1/4 188/1/4
f 186/4/4 164/4/4 188/4/4
f 188/1/4 182/1/4 189/1/4
f 182/1/4 146/1/4 190/1/4
f 189/1/4 182/1/4 190/1/4
f 189/4/4 190/4/4 191/4/4
f 191/4/4 190/4/4 192/4/4
f 192/4/4 190/4/4 193/4/4
f 193/4/4 190/4/4 194/4/4
f 194/4/4 190/4/4 195/4/4
f 195/4/4 190/4/4 196/4/4
f 189/4/4 191/4/4 197/4/4
f 191/6/4 192/6/4 197/6/4
f 192/4/4 193/4/4 198/4/4
f 197/6/4 192/6/4 198/6/4
f 193/6/4 194/6/4 199/6/4
f 198/4/4 193/4/4 199/4/4
f 194/4/4 195/4/4 200/4/4
f 199/6/4 194/6/4 200/6/4
f 195/6/4 196/6/4 201/6/4
f 200/4/4 195/4/4 201/4/4
f 196/4/4 190/4/4 202/4/4
f 201/6/4 196/6/4 202/6/4
f 200/4/4 201/4/4 203/4/4
f 199/4/4 200/4/4 203/4/4
f 201/4/4 202/4/4 203/4/4
f 198/4/4 199/4/4 203/4/4
f 197/4/4 198/4/4 203/4/4
f 189/4/4 197/4/4 203/4/4
f 203/4/4 202/4/4 204/4/4
f 204/4/4 202/4/4 205/4/4
f 205/4/4 202/4/4 206/4/4
f 206/4/4 202/4/4 207/4/4
f 202/4/4 190/4/4 208/4/4
f 207/4/4 202/4/4 208/4/4
f 189/4/4 203/4/4 209/4/4
f 203/6/4 204/6/4 209/6/4
f 204/4/4 205/4/4 210/4/4
f 209/6/4 204/6/4 210/6/4
f 205/6/4 206/6/4 211/6/4
f 210/4/4 205/4/4 211/4/4
f 206/4/4 207/4/4 212/4/4
f 211/6/4 206/6/4 212/6/4
f 207/6/4 208/6/4 213/6/4
f 212/4/4 207/4/4 213/4/4
f 208/4/4 190/4/4 214/4/4
f 213/6/4 208/6/4 214/6/4
f 188/1/4 189/1/4 215/1/4
f 187/1/4 188/1/4 215/1/4
f 213/4/4 214/4/4 215/4/4
f 209/4/4 210/4/4 215/4/4
f 189/4/4 209/4/4 215/4/4
f 211/4/4 212/4/4 215/4/4
f 212/4/4 213/4/4 215/4/4
f 210/4/4 211/4/4 215/4/4
f 214/4/4 190/4/4 216/4/4
f 215/4/4 214/4/4 216/4/4
f 190/1/4 146/1/4 216/1/4
f 187/1/4 215/1/4 217/1/4
f 215/1/4 216/1/4 217/1/4
f 146/2/4 147/2/4 218/2/4
f 217/1/4 216/1/4 218/1/4
f 216/1/4 146/1/4 218/1/4
f 147/4/4 148/4/4 219/4/4
f 218/2/4 147/2/4 219/2/4
f 219/4/4 148/4/4 220/4/4
f 221/5/4 222/5/4 223/5/4
f 223/5/4 222/5/4 224/5/4
f 227/1/5 226/1/5 225/1/5
f 228/1/5 226/1/5 227/1/5
f 229/1/5 226/1/5 228/1/5
f 230/1/5 226/1/5 229/1/5
f 231/1/5 227/1/5 225/1/5
f 232/4/5 228/4/5 227/4/5
f 232/1/5 227/1/5 231/1/5
f 233/3/5 229/3/5 228/3/5
f 233/4/5 228/4/5 232/4/5
f 234/4/5 230/4/5 229/4/5
f 234/3/5 229/3/5 233/3/5
f 235/1/5 226/1/5 230/1/5
f 235/4/5 230/4/5 234/4/5
f 236/1/5 226/1/5 235/1/5
f 239/5/5 238/5/5 237/5/5
f 240/5/5 238/5/5 239/5/5
f 241/5/6 242/5/6 243/5/6
f 243/5/6 242/5/6 244/5/6
f 245/4/6 246/4/6 247/4/6
f 247/4/6 246/4/6 248/4/6
